<?xml version="1.0" encoding="UTF-8"?>
<svg width="644px" height="178px" viewBox="0 0 644 178" version="1.1" xmlns="http://www.w3.org/2000/svg" xmlns:xlink="http://www.w3.org/1999/xlink">
    <!-- Generator: Sketch 51.3 (57544) - http://www.bohemiancoding.com/sketch -->
    <title>Combined Shape</title>
    <desc>Created with Sketch.</desc>
    <defs></defs>
    <g id="final" stroke="none" stroke-width="1" fill="none" fill-rule="evenodd">
        <g id="Desktop-HD-Copy-2" transform="translate(-430.000000, -441.000000)" fill="#7FECDA">
            <path d="M636.74402,441.148303 L936.301329,441.148303 L914.517347,490.377633 L882.42743,490.377633 L860.012451,618.976697 L784.920257,618.976697 L807.088728,491.311835 L807.379464,490.250173 L703.788131,490.250173 L700.775071,506.452516 L785.313415,506.452516 L777.045897,553.949896 L692.402082,553.672484 L689.636759,569.747367 L774.042069,569.874827 L765.515734,618.976697 L605.777605,618.976697 L636.74402,441.148303 Z M870.389441,618.976697 L949.17224,441.148303 L1055.10087,441.148303 L1073.09637,618.976697 L997.871463,618.976697 L995.294027,593.859692 L939.453823,593.859692 L928.525964,618.976697 L870.389441,618.976697 Z M985.075526,490.377633 L991.445042,553.672484 L957.320746,553.672484 L985.075526,490.377633 Z M430.862779,618.976697 L462.04596,441.148303 L578.43956,441.148303 C607.958909,441.148303 622.10617,461.6339 617.2002,482.931807 C612.294231,504.229714 597.586121,510.827378 587.220989,517.009987 C597.176007,522.043199 613.594537,540.486057 607.958909,569.228348 C600.897493,605.242307 572.16129,618.976697 539.12458,618.976697 L430.862779,618.976697 Z M530.952685,516.923073 L550.761216,450.870053 C551.110211,449.706302 550.72284,448.446958 549.780128,447.680533 C548.494536,446.635345 546.605065,446.830231 545.559877,448.115824 L476.600217,532.936967 C476.165373,533.471829 475.927988,534.140124 475.927988,534.829447 C475.927988,536.486301 477.271134,537.829447 478.927988,537.829447 L513.44342,537.829447 L492.80117,606.287376 C492.447686,607.459671 492.842103,608.729141 493.797673,609.49472 C495.090717,610.530675 496.978744,610.322262 498.014699,609.029218 L567.901501,521.798835 C568.327894,521.266626 568.560237,520.605024 568.560237,519.923073 C568.560237,518.266219 567.217091,516.923073 565.560237,516.923073 L530.952685,516.923073 Z" id="Combined-Shape"></path>
        </g>
    </g>
</svg>