<?xml version="1.0" encoding="UTF-8" standalone="no"?>
<!-- Generator: Adobe Illustrator 16.0.0, SVG Export Plug-In . SVG Version: 6.00 Build 0)  -->

<svg
   xmlns:dc="http://purl.org/dc/elements/1.1/"
   xmlns:cc="http://creativecommons.org/ns#"
   xmlns:rdf="http://www.w3.org/1999/02/22-rdf-syntax-ns#"
   xmlns:svg="http://www.w3.org/2000/svg"
   xmlns="http://www.w3.org/2000/svg"
   xmlns:sodipodi="http://sodipodi.sourceforge.net/DTD/sodipodi-0.dtd"
   xmlns:inkscape="http://www.inkscape.org/namespaces/inkscape"
   version="1.1"
   id="Calque_1"
   x="0px"
   y="0px"
   width="16.006945in"
   height="11.256945in"
   viewBox="0 0 1536.6667 1080.6667"
   enable-background="new 0 0 432 432"
   xml:space="preserve"
   sodipodi:docname="All.svg"
   inkscape:version="0.92.4 (5da689c313, 2019-01-14)"><metadata
   id="metadata4718"><rdf:RDF><cc:Work
       rdf:about=""><dc:format>image/svg+xml</dc:format><dc:type
         rdf:resource="http://purl.org/dc/dcmitype/StillImage" /><dc:title></dc:title></cc:Work></rdf:RDF></metadata><defs
   id="defs4716" /><sodipodi:namedview
   pagecolor="#ffffff"
   bordercolor="#666666"
   borderopacity="1"
   objecttolerance="10"
   gridtolerance="10"
   guidetolerance="10"
   inkscape:pageopacity="0"
   inkscape:pageshadow="2"
   inkscape:window-width="3840"
   inkscape:window-height="2004"
   id="namedview4714"
   showgrid="false"
   inkscape:zoom="1.5451593"
   inkscape:cx="595.01669"
   inkscape:cy="549.32834"
   inkscape:window-x="-16"
   inkscape:window-y="-16"
   inkscape:window-maximized="1"
   inkscape:current-layer="layer1"
   fit-margin-top="1"
   fit-margin-left="1"
   fit-margin-bottom="1"
   fit-margin-right="1"
   units="in" />







<g
   inkscape:groupmode="layer"
   id="layer1"
   inkscape:label=" back"
   transform="translate(1.8447622,16.877462)"
   style="display:inline"><g
     id="g4819"><rect
       y="79.455872"
       x="94.488571"
       height="888"
       width="1344"
       id="rect4862"
       style="display:inline;fill:#f0f0f0;fill-opacity:1;stroke:#000000;stroke-width:0.66666669;stroke-miterlimit:4;stroke-dasharray:none;stroke-opacity:1" /><g
       style="display:inline;fill:#bababa;fill-opacity:1;stroke:none;stroke-opacity:1"
       transform="translate(-54.507701,-41.7628)"
       id="g4774"><g
         style="fill:#bababa;fill-opacity:1;stroke:none;stroke-opacity:1"
         transform="matrix(2.0289238,0,0,-2.0289238,821.00033,506.34539)"
         id="g3460"><path
           inkscape:connector-curvature="0"
           id="path3462"
           style="fill:#bababa;fill-opacity:1;fill-rule:nonzero;stroke:none;stroke-opacity:1"
           d="m 0,0 c -8.01,0 -15.264,-3.249 -20.516,-8.505 -5.254,-5.244 -8.501,-12.502 -8.501,-20.516 0,-8.008 3.247,-15.261 8.501,-20.507 5.252,-5.249 12.506,-8.504 20.516,-8.504 8.012,0 15.27,3.255 20.514,8.504 5.252,5.246 8.492,12.499 8.492,20.507 0,8.014 -3.24,15.272 -8.492,20.516 C 15.27,-3.249 8.012,0 0,0 m 0,3.516 c 17.965,0 32.531,-14.568 32.531,-32.537 0,-17.963 -14.566,-32.529 -32.531,-32.529 -17.963,0 -32.535,14.566 -32.535,32.529 0,17.969 14.572,32.537 32.535,32.537" /></g><g
         style="fill:#bababa;fill-opacity:1;stroke:none;stroke-opacity:1"
         transform="matrix(2.0289238,0,0,-2.0289238,789.7819,564.68894)"
         id="g3464"><path
           inkscape:connector-curvature="0"
           id="path3466"
           style="fill:#bababa;fill-opacity:1;fill-rule:nonzero;stroke:none;stroke-opacity:1"
           d="m 0,0 c 0,1.896 -1.258,2.973 -3.039,2.973 h -1.09 V -2.975 H -3.07 C -1.414,-2.975 0,-2.075 0,0 M 19.389,-2.14 11.359,-8.463 4.02,-2.685 C 2.961,-5.229 0.402,-6.996 -2.545,-6.996 H -8.826 V 6.996 h 6.281 c 3.293,0 5.666,-2.094 6.563,-4.325 l 7.341,5.772 2.719,-2.14 -6.728,-5.288 1.293,-1.012 6.726,5.285 2.723,-2.134 -6.727,-5.294 1.291,-1.014 6.733,5.295 v 4.855 h 4.881 v -9.908 h 4.869 v -4.101 h -9.75 z m 15.933,-0.774 h 4.867 V -7.013 H 30.436 V 6.996 h 4.886 z" /></g></g></g></g><g
   inkscape:groupmode="layer"
   id="layer2"
   inkscape:label="top"
   transform="translate(1.8447622,16.877462)"
   style="display:inline"><path
     style="clip-rule:evenodd;fill-rule:evenodd;stroke-width:1.61597705"
     inkscape:connector-curvature="0"
     d="m 1073.0938,281.18938 c -0.042,-1.58204 -1.2863,-1.97472 -2.188,-2.70838 0.1858,-0.32319 0.4104,-0.60922 0.3911,-1.1538 -0.4137,-1.21037 -0.8808,-2.37388 -1.6629,-3.19479 0.2909,-2.00058 -1.658,-2.94431 -1.9295,-4.11751 -0.2634,-1.09725 0.3669,-2.20258 -0.5155,-3.20287 0.7531,-1.38166 -0.1373,-2.24136 -0.391,-3.20286 -0.215,-0.84839 -0.095,-1.64992 -0.2473,-2.44175 -2.1735,-0.77243 -3.1463,-2.75362 -4.3663,-4.47948 0.066,-7.05374 0.2472,-15.31139 0.2472,-24.12008 0,-5.61552 0.037,-11.29729 -0.2472,-15.52954 -0.1051,-1.51578 0.2714,-3.54707 0,-4.4908 -0.1859,-0.61892 -1.2492,-1.87776 -1.9263,-2.05714 -1.797,-0.46701 -3.5131,0.65609 -5.0047,0.38945 -0.9243,-0.17129 -1.2637,-0.86616 -2.4401,-1.02937 -0.3297,-0.32482 -0.053,-0.87748 -0.5106,-1.28794 -1.4916,-0.24724 -2.5694,-0.72396 -3.7233,-1.15381 -0.6867,-0.25694 -1.4155,-0.37005 -2.0458,-0.62861 -1.2007,-0.5155 -2.1444,-1.96503 -4.2371,-1.42206 -1.6305,-1.23946 -2.2833,-3.46142 -4.7477,-3.85087 -0.4767,-0.39107 -0.8015,-0.90657 -1.149,-1.40106 -1.296,-0.20038 -2.1121,-0.88717 -3.3418,-1.1538 -0.9486,0.4961 -1.4738,1.43014 -2.3125,2.03936 -0.8063,-0.16968 -1.0633,0.54458 -1.7921,0.63993 -0.8969,0.13412 -1.7307,-0.43793 -2.8231,-0.37976 -0.8145,-0.63993 -1.3493,-1.56426 -2.8167,-1.54487 -0.6431,-0.0663 -0.4298,0.70618 -1.0342,0.63992 -0.6011,0.35229 -1.296,0.18907 -2.0507,0.51388 -0.509,0.23755 -0.829,0.75305 -1.4156,0.90657 -1.5529,0.42015 -3.4468,-0.0469 -5.1388,0.13251 -1.4867,0.15352 -2.7843,0.5058 -3.9704,0.88717 -0.1196,1.80181 -1.6774,1.81151 -2.9508,2.44174 -0.7724,0.38945 -1.2201,1.00999 -1.797,0.90656 -0.7385,-0.15351 -1.3154,-1.33479 -2.0539,-1.79211 -0.3054,-0.20039 -0.7869,-0.3135 -1.1538,-0.51389 -1.0148,-0.56397 -1.721,-0.95342 -2.82308,-1.04068 0.0339,-0.76275 -0.01,-1.43014 -0.24725,-1.92463 -0.92433,0.11312 -1.45922,0.60922 -2.18803,0.90656 -0.26179,0.77244 -0.60922,1.00029 -1.28632,1.01968 -0.61407,0.0194 -1.00998,-0.95342 -1.79212,-1.27662 -0.39106,-0.15352 -0.91949,0 -1.28793,-0.12443 -1.01968,-0.39107 -1.48185,-2.04098 -2.68898,-1.42044 -0.50096,1.22006 -1.28147,2.1347 -2.56941,2.57425 0.25209,1.27824 -0.21492,2.95562 -1.28632,3.33699 -0.5769,-0.63023 -1.25884,-0.71588 -1.40105,-1.6693 -0.16806,-1.01969 0.77244,-2.41104 -0.26179,-3.21257 -0.648,0.0679 -1.40266,0.0388 -2.30761,0.12443 -1.08755,0.48641 -1.51579,2.22197 -3.08005,1.80182 -0.45733,-0.3135 -0.20039,-1.3445 -0.51065,-1.80182 -0.9906,-0.36198 -2.21066,-0.52357 -3.21257,-0.88717 0.0339,-0.53327 -0.29572,-1.27662 -0.77243,-1.66769 -0.52358,0.12282 -1.8309,-0.12281 -2.55971,0.12282 -0.1519,0.61084 -0.94373,0.62053 -1.54487,1.15542 -0.42339,0.37976 -0.56721,1.00029 -1.01969,1.27662 -0.85323,0.52358 -2.27852,0.64801 -3.21741,-0.12443 -0.31026,-1.08593 -0.35228,-2.4579 -0.75789,-3.4598 -0.84839,-0.1713 -1.62082,-0.43793 -2.30761,-0.77406 -0.0856,-0.88717 -0.0582,-2.11693 -0.5252,-2.95562 -0.93403,-0.13251 -1.33964,0.28764 -1.9117,0.5155 -0.27633,-0.41046 -0.85323,-0.52519 -1.1732,-0.88717 -0.86778,0.13251 -1.91978,-0.076 -3.32729,0 -0.29573,0.48641 -0.7482,0.22946 -1.15381,0.5058 -0.84031,0.58983 -0.92434,1.97311 -2.4369,1.66769 -0.87586,-0.6674 -1.76303,-1.31379 -2.57425,-2.04098 -0.71426,0.25855 -0.92434,-0.24725 -1.66284,-0.13251 -0.5769,0.0662 -1.0019,0.69648 -1.53518,0.76274 -1.44468,0.19068 -2.731,-1.01968 -4.36637,-1.02938 -0.62861,-1.13442 -2.77463,-1.70809 -4.23386,-0.88717 -0.70941,-0.76274 -2.41588,-0.49611 -2.95077,-1.42045 -0.0953,-2.39326 -0.34744,-3.19478 -1.79212,-4.4811 -1.00675,-0.88556 -1.72101,-1.59174 -2.95077,-1.42044 -0.37168,0.21007 -0.14221,1.1635 -0.64316,1.53517 -1.73071,0.20039 -2.28338,-0.78213 -3.97531,-0.63992 -0.45732,0.0194 -0.16321,0.79021 -0.63992,0.76274 -5.04347,0.4961 -5.05155,-5.79651 -9.75727,-5.6236 0.20038,-0.89687 0.7288,-0.92434 0.89687,-1.67739 0.28118,-1.24915 0,-3.1463 0,-4.88186 0,-16.85626 -0.22947,-34.45425 -0.12928,-50.80471 -25.44033,0 -50.89035,0 -76.34523,0 0,0.13413 0,0.25694 0,0.38137 0.12444,25.76837 -0.11473,54.65558 -0.11473,78.66254 0,1.69677 -0.31996,3.37416 -0.39107,5.11941 -0.23754,5.43292 0.11474,11.06945 -0.12443,16.54922 -0.47671,10.74464 0.45733,21.69934 -0.12927,32.59588 -29.33968,0 -58.6826,0 -88.01905,0 0,1.42044 0,2.82149 0,4.23224 0.47672,0.42016 0.7579,1.14411 1.28632,1.53518 0.49611,0.37168 1.13927,0.33289 1.66446,0.64801 0.28118,0.17129 0.60599,0.57205 0.9001,0.77243 2.08299,1.43014 3.90905,3.06874 4.48595,6.02598 1.34934,2.24136 3.12207,4.06257 5.52018,5.26324 0.41854,0 0.85808,0 1.28147,0 1.39135,0.78052 2.23005,2.20258 3.46142,3.20287 0.57691,0.46701 1.37197,0.71426 1.92948,1.1538 0.46217,0.37976 0.81445,0.9906 1.28147,1.42045 1.50286,1.34449 2.80857,2.63081 3.9753,4.22255 -0.0808,0.42015 0.0857,0.60114 0.12928,0.89686 1.26369,1.64992 3.02672,2.80211 3.85087,4.88187 2.19773,1.09725 4.6621,1.92463 6.15364,3.72806 0.57691,-0.0759 0.96797,0.0566 1.41075,0.12443 0.81607,0.89687 1.93109,1.4867 3.0849,2.04098 0.33451,2.39165 2.76494,2.70676 3.45658,4.63301 0.42015,1.1231 -0.21493,2.03936 0,3.20286 0.16644,0.83869 1.15865,1.76303 1.80181,2.69707 0.29573,0.42985 0.5866,0.96312 0.90172,1.40105 0.38622,0.54458 0.69648,0.88717 0.89202,1.41075 0.48156,1.28793 0.13412,2.57425 0.13412,4.37606 1.06816,1.22168 0.52519,3.03158 1.02453,4.35668 0.22947,0.58175 0.83385,0.84839 1.28147,1.41075 0.22947,0.29572 0.40076,0.77243 0.63993,1.1538 0.79668,1.27824 1.21521,2.3254 1.02453,4.62331 0.75304,0.62054 1.31056,1.43014 2.05875,2.05068 1.81636,0.3135 2.69868,1.50771 3.85734,2.29792 0.62862,0.45732 1.34449,0.72396 1.79212,1.1732 0.63023,0.62053 0.71911,1.35419 1.15865,1.91655 0.69164,0.92434 1.72587,1.679 2.55002,2.29792 1.73556,1.33479 3.13176,1.54487 5.78196,2.19288 1.21199,0.29572 1.42045,1.38166 2.30762,1.92463 0.5866,0.36359 1.38166,0.26663 2.05067,0.51388 0.36683,0.13412 0.89202,0.4961 1.4156,0.75304 0.63023,0.33451 1.40105,0.6771 1.66284,0.90657 1.0924,0.94373 2.06845,2.03128 3.08005,2.95562 0.829,0.24724 1.51579,0.3442 2.18803,0.648 0.6674,0.29573 1.13442,0.9906 1.80182,1.15381 0.5058,0.11312 1.13926,-0.21007 1.91655,-0.13412 1.20552,-0.8387 2.20257,-1.89716 2.56455,-3.59394 1.32995,-0.3442 1.69678,-1.64021 2.30762,-2.68898 1.03422,-0.0856 1.52548,-0.69649 2.43528,-0.90657 -0.25694,-0.54296 -0.52843,-0.98089 -0.37653,-1.66768 0.11959,-0.49611 0.61407,-0.77244 0.89202,-1.27663 0.53328,-0.96473 0.60115,-2.30761 0.77244,-3.59555 0.15352,-1.14411 0.82576,-2.88775 1.28793,-3.84279 0.45733,-0.97282 1.61113,-1.66769 2.17349,-2.31731 0.2424,-0.829 0.45732,-1.67738 0.90657,-2.30762 1.11987,0.18099 1.78727,-0.87586 2.5694,-1.02937 1.35904,-0.26664 2.41265,-0.0469 4.10458,-0.13413 0.36683,-1.08594 0.53327,-3.22226 1.79212,-3.58424 1.72102,-0.5058 2.95077,2.10724 4.4908,2.44175 0.71426,0.1519 1.85029,-0.097 2.82634,-0.13413 0.77244,-0.0291 1.51256,0.0372 2.17834,0 0.97767,-0.0566 1.93594,-0.42015 2.94593,-0.24725 0.48641,0.0663 1.14411,0.43793 1.66769,0.63993 1.39135,0.52358 2.96047,1.31379 4.74774,0.63831 0.77243,0.62054 1.95856,0.41046 2.83119,0.89687 0.40076,0.22947 0.5866,0.78213 1.01968,1.15381 0.7385,0.63992 1.44468,0.68679 1.79697,1.28793 0.0339,0.0469 0.21977,0.5058 0.26179,0.63831 0.2634,0.87748 0.0533,1.3348 0.75789,1.93594 0.69648,0.0469 0.44762,-0.85808 1.15865,-0.648 0.62862,0.18099 0.46217,0.83061 0.90172,1.53517 0.3038,0.55267 0.46702,1.24754 0.77567,1.79051 0.63023,-0.0291 1.1732,0.0307 1.66445,0.13412 0.85809,0.60115 1.40106,1.50771 1.66284,2.69868 2.05876,1.36389 3.52768,3.31761 5.78197,4.48919 0.12928,0.68679 0.69649,0.91464 0.51065,1.92463 0.70618,0.6577 1.41075,1.51578 2.04421,2.43204 0.50095,0.72396 1.51579,2.10724 1.66931,2.8215 0.17129,0.74335 -0.12444,1.61113 0,2.56455 0.78051,1.05847 1.39135,2.29792 2.18803,3.337 0.0679,1.38166 1.29278,2.21065 1.79212,3.4695 0.23431,0.58014 0.10019,1.35257 0.38137,1.91655 0.34743,0.69649 1.35419,1.08594 1.66445,1.80181 0.32805,0.72396 0.15191,1.56265 0.39592,2.31731 0.10019,0.3232 0.44278,0.75305 0.63831,1.14412 0.23432,0.47671 0.30542,0.98089 0.5155,1.41074 0.39106,0.829 1.11987,1.5061 1.41559,2.31732 0.28118,0.8096 0.0856,1.76303 0.37652,2.43043 0.61569,1.43983 3.2465,1.94563 4.23871,2.95562 0.21493,1.30732 1.68708,1.78404 1.40105,3.20286 1.20229,1.07624 2.79888,2.27853 2.57426,4.36637 1.97795,2.59203 4.15629,4.98691 7.04889,6.67561 -0.0291,1.93432 2.59364,2.49668 3.0849,4.0965 0.40076,1.33479 -0.15675,2.83442 -0.12443,4.23547 0,0.35067 0.0905,0.96313 0.12443,1.41075 0.0436,0.52358 0.01,1.2847 0.12928,1.67577 0.16321,0.48641 1.28147,1.20229 1.53517,1.92463 0.30381,0.84031 0.01,1.76465 0.12767,2.55647 0.0905,0.52358 0.4153,1.00029 0.51549,1.54326 0.28118,1.47701 0.24725,2.46114 0.77244,3.46304 1.93917,0.93404 3.156,3.09621 3.21256,5.52988 0.55267,0.57205 1.03908,0.91464 1.4156,1.52386 0.18099,0.33451 0.54297,0.9906 0.62861,1.54326 0.15191,0.85808 -0.32481,1.81151 -0.12443,2.69868 0.27634,1.20229 2.14925,1.78404 1.66769,3.33538 0.90657,0.81122 1.33965,1.5271 2.68899,1.79212 0.9809,0.20199 2.12178,-0.17938 3.08328,0 1.14896,0.22139 1.61113,1.20228 2.43528,1.54649 0.46702,1.33156 2.06845,2.71484 3.34184,3.06712 0.39107,0.11312 0.88232,-0.0566 1.28632,0 0.63993,0.11312 1.4867,0.67871 2.30277,0.89687 0.43793,0.12281 0.97281,0.1422 1.28631,0.25855 0.77244,0.30381 1.08756,0.97282 1.66446,1.42045 0.31996,0.23593 0.72396,0.25532 1.02453,0.51388 0.33774,0.26502 0.48156,0.59953 0.77567,0.88717 1.18128,0.10342 1.86807,0.70457 2.55001,1.28793 2.81342,0.20847 5.84984,-0.30541 8.4758,0.25533 0.81445,0.16968 1.44468,0.66901 2.18319,0.77405 0.74334,0.10342 1.50285,-0.11312 2.17833,0.12282 0.43793,0.16159 0.77729,0.64639 1.15381,1.02937 1.20229,1.15543 2.55971,2.36418 3.21256,3.70867 0.5963,-0.10342 0.56721,0.39107 0.89202,0.51388 0.60923,-0.0856 1.2443,0.0792 1.92463,0 0.40561,-1.72263 0.77244,-1.9828 2.44013,-2.55324 1.0019,-0.3442 1.63052,-0.71588 2.69868,-0.63993 0.7288,-0.68517 1.27339,-1.51579 1.02453,-2.57263 -0.1519,-0.62862 -1.16351,-1.37358 -1.79697,-2.03937 -0.7385,-0.80152 -1.46892,-1.45114 -1.79697,-2.06037 0.65286,-2.24136 -0.51064,-4.08034 -0.90171,-6.03406 -0.66255,-0.76435 -2.32216,-1.00998 -2.44013,-2.30761 -0.076,-0.89687 1.05847,-1.52387 1.16836,-2.43043 0.042,-0.45732 -0.2424,-1.3251 -0.39592,-1.92463 -0.44278,-1.87777 -0.88071,-3.94783 -1.15381,-5.90155 -0.77243,-0.64962 -1.58689,-1.24107 -2.04421,-2.19288 0.44278,-0.59953 1.16351,0.3539 1.4059,-0.24563 -0.13412,-0.98413 -1.02453,-1.20229 -1.66284,-1.6693 0.26664,-0.41046 0.15675,-1.07624 0.37652,-1.54326 0.20847,-0.42015 0.64316,-0.99059 0.9001,-1.02291 0.53489,-0.076 0.58176,0.90656 1.15866,0.63992 0.60114,-1.75495 -0.18584,-3.38385 0.12928,-5.25515 0.12928,-0.7886 0.84839,-1.4964 0.64316,-2.44013 -1.00999,-0.85808 -3.28852,0.12281 -4.75744,-0.13251 -0.36683,-0.0663 -1.71132,-0.73527 -1.66769,-1.15542 0.0145,-0.0856 1.04877,-0.77082 1.4156,-0.90657 0.77243,-0.24563 1.61113,-0.0566 2.17833,-0.37814 0.19554,0.49611 0.48157,0.90657 0.77244,1.28471 0.78537,-0.89687 1.7194,-1.60952 2.57425,-2.44013 1.09564,-2.33509 1.52064,-4.91742 2.56456,-7.3123 0.26179,-0.61891 0.97605,-1.09563 0.76274,-1.92462 -1.39136,-0.63993 -2.83119,-1.27824 -3.3273,-2.8215 0.83385,-0.26664 0.9098,-1.31541 1.79212,-1.53518 0.46702,0.56236 1.57881,0.57206 2.43528,0.39107 0.17614,-0.42985 0.16806,-1.031 0.25209,-1.55457 0.67225,-0.6577 1.33965,-1.39136 2.05391,-2.17349 1.10694,-1.19259 2.49345,-1.90847 2.44012,-3.46142 0.91465,-0.59145 1.07786,-1.92625 1.79697,-2.70838 1.62567,0.33289 1.92463,-0.72396 2.5694,-1.27824 0.48641,-0.41854 1.08594,-0.43793 1.27339,-1.02938 -0.0856,-1.8309 -0.59144,-3.93813 -0.76274,-5.25354 1.2637,-0.28603 1.8309,1.13442 2.68899,1.66931 0.15352,0.65608 0.12443,1.49639 0.64316,1.7905 2.03613,-0.20038 2.74069,-2.01189 4.23382,-2.8215 0.7095,-0.38137 1.4916,-0.43793 2.3077,-0.90656 0.034,-1.00029 -0.4347,-1.51579 -0.64,-2.29792 -1.8163,-1.22006 -3.28849,-2.78433 -4.23868,-4.88187 0.33935,-0.18099 0.60114,-0.43793 0.90171,-0.648 0.16806,0.90656 1.16837,0.98251 1.28797,1.92624 1.0908,0.20846 0.8629,1.42044 1.6628,1.66769 0.3087,0.0953 1.2152,-0.29572 1.6677,-0.63023 0.8484,-0.63993 1.7873,-2.05876 2.8312,-2.70838 0.4331,-0.26664 0.8726,-0.40884 1.2734,-0.63831 0.4007,-0.21977 0.7482,-0.62054 1.1538,-0.5058 -0.425,1.14249 -0.5575,2.61142 -0.6302,4.09812 1.2297,-0.0469 1.721,-0.8387 2.8166,-1.01969 0.5252,-0.54458 1.4592,-1.35418 2.5549,-0.90656 0.3813,0.86778 -0.5624,1.46731 -1.1393,1.80182 -0.6626,0.37975 -1.5869,0.71426 -2.188,1.02937 -1.4593,0.76274 -2.7553,1.89716 -4.2339,2.31731 -0.6432,0.87748 -1.7307,1.3348 -2.1783,2.43205 2.9944,-0.81122 3.9947,-3.61332 7.6936,-3.71836 1.2007,-1.46893 2.7973,-2.19288 4.6185,-3.08975 2.0733,-1.00999 3.9705,-2.01028 5.6495,-3.3273 4.6233,-2.4886 9.0753,-5.52987 12.6983,-9.24823 1.178,-1.19098 2.6017,-2.8312 3.9753,-3.34669 0.2957,-0.0953 0.5769,-0.26664 1.0245,-0.10343 1.5869,-1.71616 3.7895,-2.82149 4.6233,-5.28263 -0.1616,-0.31349 -0.6286,0.12444 -0.6383,-0.10342 0.5866,-0.87747 1.3591,-1.55457 2.1784,-2.19288 1.3348,-0.1616 1.9456,-1.03907 2.8166,-1.66769 1.5788,-0.12443 2.7843,-1.00029 4.2339,-1.66769 4.1902,-1.91654 8.0653,-4.27264 13.3415,-4.36637 0.9728,-1.91654 -1.2346,-2.50799 -1.5303,-3.9656 1.1861,-1.3348 2.5597,-2.4983 3.08,-4.5005 0.5753,-0.94373 1.6111,-1.06654 2.1735,-1.92463 0.2957,-0.43793 0.6819,-1.56426 0.7773,-2.17349 0.3571,-2.40296 -1.1732,-3.65211 -0.5107,-5.52018 -0.3522,-0.73365 -0.8952,-1.40105 -0.7724,-2.30761 0.1099,-0.81122 0.9017,-1.1635 1.149,-1.80182 -0.7725,-0.85808 -0.7143,-2.21065 -0.5091,-3.71836 0.3572,-0.44762 0.6092,-1.01968 1.0246,-1.41075 0.1955,-1.12472 0.5623,-1.94563 1.0342,-2.82149 0.6625,-1.27824 1.7307,-2.08784 1.401,-4.10943 1.0585,-1.06816 1.0149,-2.96532 0.5155,-4.61362 0.1713,-0.63023 0.6189,-0.63992 0.7725,-1.28631 0.3248,-1.41237 -0.5575,-3.26266 0.1292,-4.4908 -0.4007,-0.27634 -1.0778,-0.28603 -1.7824,-0.24725 z"
     id="path4705" /><path
     style="clip-rule:evenodd;fill-rule:evenodd;stroke-width:1.61597705"
     inkscape:connector-curvature="0"
     d="m 1003.2933,363.93064 c -0.6286,0.6981 -1.2637,1.39136 -1.9262,2.05875 -0.5091,-0.0856 -0.7288,0.12444 -1.1538,0.12444 -1.51099,0.92433 -2.61147,1.96341 -3.85092,3.20286 -1.20067,1.21037 -2.11208,2.87806 -4.10781,2.95401 -1.61113,2.62273 -4.80107,3.66988 -5.38606,7.32199 0.84839,0.0194 1.09079,-0.54297 1.79697,-0.64801 0.65285,-2.38356 2.45952,-3.51798 4.10458,-4.99498 1.24915,-1.13442 2.54517,-2.14602 3.72321,-3.21256 1.22976,-1.11503 2.64536,-1.8406 3.97533,-2.8312 0.5963,-0.43793 1.1926,-1.09724 1.8066,-1.6596 0.5721,-0.54297 1.5869,-1.1522 1.2734,-2.18319 -0.027,-0.0937 -0.1034,-0.14221 -0.2553,-0.13251 z"
     id="path4707" /><path
     style="clip-rule:evenodd;fill-rule:evenodd;stroke-width:1.61597705"
     inkscape:connector-curvature="0"
     d="m 979.68226,399.73908 c 1.32995,-4.41162 2.64536,-9.01716 4.49565,-12.82925 0.45732,-0.96312 1.09079,-1.85029 1.53518,-2.70029 0.21008,-0.39107 0.21008,-0.84839 0.38137,-1.16351 0.12928,-0.21007 0.52035,-0.3135 0.64316,-0.5058 0.38137,-0.56397 0.53327,-1.30732 0.26179,-2.05067 -0.69649,0.97282 -1.64507,1.68708 -1.79697,3.20286 -0.7288,0.68679 -1.13441,1.68708 -1.53518,2.7003 -0.78213,0.40723 -1.03422,1.35096 -1.5481,2.03936 -0.0517,1.70809 -0.79183,2.72777 -1.53518,3.72806 0.47186,1.23138 -0.88717,1.77435 -1.14896,2.69869 -0.14221,0.45732 0.0517,1.36388 0,2.1848 -0.10019,1.17158 -0.48156,2.06683 0.24724,2.69545 z"
     id="path4709" /><path
     style="clip-rule:evenodd;fill-rule:evenodd;stroke-width:1.61597705"
     inkscape:connector-curvature="0"
     d="m 985.46423,432.71794 c 0,-1.28794 0,-2.57587 0,-3.8638 -0.2634,-0.51388 -0.74335,-0.76113 -0.90656,-1.28794 -0.27149,-0.83707 -0.0339,-1.81797 -0.2521,-2.67606 -0.17129,-0.65931 -0.5769,-1.28793 -0.77243,-1.93432 -0.54297,-1.73556 -1.03908,-3.53737 -1.54488,-5.12265 -0.20523,-0.68517 -0.22947,-1.25561 -0.38137,-2.05714 -0.16321,-0.82091 -0.5866,-1.60951 -0.77243,-2.44012 -0.829,-3.68928 -0.23755,-9.4971 -1.40106,-12.94721 -0.0339,-0.11312 -0.10988,-0.16483 -0.26825,-0.13574 -0.1519,1.91008 0.20038,3.58585 -0.25694,5.25515 0.33774,0.58014 0.36844,1.3348 0.39591,2.05714 0.0614,1.94402 0.10343,4.18538 0,6.15203 0.26664,0.58983 0.9098,1.1328 1.14896,1.78889 0.10828,0.3345 0.0145,0.77405 0.12928,1.15542 0.13413,0.46702 0.47187,0.82092 0.64316,1.28793 0.13413,0.37168 0,0.77082 0.12443,1.15219 0.18099,0.58014 0.64801,0.93404 0.76759,1.41075 0.13413,0.55267 -0.01,1.24107 0.13413,1.80182 0.24239,0.94373 0.90656,1.79212 1.1538,2.68898 0.19554,0.74497 0.21008,1.56265 0.38138,2.31731 0.18098,0.77406 0.58659,1.43984 0.64315,2.04906 0.12928,1.50933 -0.6577,2.74555 1.03423,3.34831 z"
     id="path4711" /><path
     d="m 1153.3976,320.28331 c 0.5429,-0.54297 0.8386,-1.3348 1.4398,-1.8406 -0.6965,-1.77434 0.6577,-2.28822 0.9243,-3.40163 0.1713,-0.74497 -0.3151,-1.23138 0.1245,-1.97634 2.3173,-0.51388 5.9969,-1.55296 7.3494,0.52357 -0.2763,0.97605 -0.076,1.91979 0.3911,2.49992 -0.3814,1.03907 -0.2666,1.96341 -0.257,2.87806 0.5059,0.12281 0.4865,0.29734 1.0391,0.1422 0.7531,0.89687 1.9166,0.97282 2.6308,1.8309 0.7353,0.89687 1.107,2.6696 1.3057,3.66989 0.068,0.29734 0.1342,0.44762 0.1342,0.65932 0.066,2.31731 -0.2861,4.70895 -0.4008,7.08282 -1.2782,29.19101 -2.5258,60.69126 -3.6699,89.59785 0.6674,-0.0792 1.0585,-0.43792 1.8406,-0.39106 -0.572,4.19507 -1.4479,8.77152 -1.8406,12.72582 28.0954,0.81122 55.79,2.01351 83.5719,3.14631 0.037,-1.1522 -1.2298,-1.83091 -1.582,-2.88776 -0.2101,-0.63992 -0.019,-1.3154 -0.257,-1.84059 -0.4379,-0.95343 -1.2863,-1.02938 -1.9731,-1.8406 -0.3345,0.54297 -0.9146,0.83061 -1.3073,1.3154 -0.829,-0.51388 -0.2957,-1.23137 0,-1.96664 -0.8096,-1.73233 -2.2785,-2.79402 -3.413,-4.19508 0.4574,-0.71264 -0.2472,-1.37358 -0.391,-2.10561 -0.1342,-0.65932 0.057,-1.42045 -0.1342,-2.09916 -0.1616,-0.56236 -0.6964,-1.08594 -0.7902,-1.70485 -0.039,-0.24887 0.1342,-0.64963 0.1342,-1.05039 0,-0.77082 -0.2764,-1.6386 -0.1342,-2.22197 0.086,-0.31188 0.4574,-0.46702 0.2667,-0.7886 0.3522,-0.4864 1.4398,-0.95342 1.8309,-1.70808 0.21,-0.39107 0.037,-1.08594 0.2666,-1.70809 0.066,-0.18907 0.286,-0.35067 0.3911,-0.52358 0.5623,-0.90656 0.1147,-1.42044 0.1341,-2.75524 0.029,-1.3348 -0.029,-2.18157 -0.6577,-3.01056 0.543,-0.59953 1.191,-1.08917 1.8406,-1.58366 1.6871,0.0695 1.9359,-1.2944 3.804,-1.03907 0.467,-0.67548 1.2782,-1.00029 1.5723,-1.8503 -0.1422,-0.38137 -0.1147,-0.92434 -0.2569,-1.30732 0.2957,-0.7886 1.3154,-0.86778 1.9634,-1.31541 0.4767,-1.67577 -1.2685,-2.48699 -1.5739,-3.79431 -0.086,-0.35067 0.076,-0.96313 0,-1.44792 -0.1148,-0.76112 -0.543,-1.07624 -0.3911,-1.70809 0.181,-0.76112 1.0859,-1.37035 1.5723,-1.96341 0.5818,-0.70457 1.0407,-1.35419 1.4399,-2.23166 -0.2101,-0.9809 -0.7725,-1.78081 -0.6577,-2.6195 0.105,-0.68841 0.829,-0.97282 0.9243,-1.57558 0.1713,-1.09563 -1.0488,-1.4867 -0.7918,-2.88775 -0.6577,-0.39107 -1.2476,-0.84839 -1.5724,-1.57235 0.6012,-1.6693 0.4574,-3.94783 0.6577,-6.03406 1.2783,-0.78213 0.7159,-2.21227 0.9147,-3.93975 0.086,-0.72234 0.5155,-1.41075 0.5252,-1.96341 0.029,-1.02938 -0.543,-2.08946 -0.2667,-3.156 0.8096,-1.21199 1.7922,-2.23167 2.7634,-3.27882 0.086,-0.40076 -0.2295,-0.38137 -0.1326,-0.78213 0.8,-1.07624 0.9632,-2.79403 1.5724,-4.06903 -0.2295,-1.02292 -1.1813,-1.62244 -1.1813,-2.62273 0,-1.29763 1.2395,-2.09916 1.7065,-3.14631 -0.7531,-0.78213 -1.965,-0.77405 -2.3642,-1.70809 -0.1907,-0.45732 0.039,-1.16189 0,-1.8406 0.6399,-0.32158 0.8096,-1.11341 1.4495,-1.43983 0,-0.49611 -0.5623,-0.39107 -0.391,-1.04716 0.3426,-2.53385 1.1344,-5.32787 1.3073,-7.86496 0.066,-1.01968 -0.058,-1.91655 0.3911,-2.76493 0.1616,-0.41046 0.4961,0.0856 0.5252,-0.51388 0.9049,-2.50638 -1.7922,-3.87835 -1.5643,-5.77874 0.1147,-1.08594 1.2782,-1.55295 1.6968,-2.62919 -0.1713,-1.24107 0.01,-2.44982 -0.5236,-3.53738 0.467,-0.4961 0.7143,-1.20875 1.0488,-1.8309 1.7064,-1.04715 3.8508,-1.65638 4.5861,-3.66988 -0.2585,-0.91465 -0.7256,-1.59982 -0.648,-2.49669 0.1147,-1.4867 1.6499,-2.30761 2.0975,-3.41133 0.1148,-0.26825 0.01,-0.76435 0.1245,-1.18289 0.105,-0.31512 0.3345,-0.63831 0.4007,-0.91464 0.4299,-1.70809 0.2764,-3.24165 0.5236,-4.46333 0.4202,-2.05714 1.8681,-3.05905 2.7552,-4.71866 0.7337,-0.36359 1.1345,-1.05684 2.2317,-1.05684 0.6674,-0.81123 1.6677,-1.29763 2.3545,-2.09916 0.4961,-1.3348 1.6208,-2.04906 2.4967,-3.01056 -0.181,-1.53357 1.0778,-2.77464 1.582,-4.07227 -0.5349,-1.37358 0.3814,-3.05258 0.7822,-4.32758 -0.2004,-1.28794 -0.5818,-2.63243 -0.3911,-3.93006 0.8306,-0.3038 1.0875,-1.17966 1.5739,-1.8406 -0.3248,-0.11312 -0.572,-0.3038 -0.5235,-0.78859 0.4185,-0.52681 1.0003,-0.91465 1.5723,-1.30733 0.7062,-2.07976 2.8603,-2.73585 4.061,-4.33082 -0.095,-0.58983 0.391,-2.01027 0,-2.88775 1.0019,-1.07624 2.8796,-2.28822 1.8406,-3.93652 -0.4477,-0.0291 -1.0682,0.10342 -1.3154,-0.12605 0.2375,-1.43983 -0.6206,-3.68927 0.9243,-4.46009 0.057,-0.42016 -0.2489,-0.46702 -0.1341,-0.91465 0.6286,-0.38137 0.8952,-1.12633 1.1813,-1.85029 0.4476,0.24563 0.6189,-0.01 1.1731,0 -0.037,-0.95343 0.3426,-1.49963 0.2667,-2.49022 0.9437,-1.01968 1.9262,-2.01028 2.6227,-3.27882 -0.1341,-0.67548 0,-0.79829 0,-1.57234 0.6577,0.3345 1.1635,-0.22139 1.8406,-0.25856 -0.1341,-0.61892 -0.6674,-0.81768 -0.7918,-1.44792 1.0488,-0.0291 1.1732,-1.22814 0.7918,-1.96341 -0.2763,-0.0856 -1.0681,0.27795 -1.8406,0.13251 -0.934,-1.87776 0.6189,-3.10914 1.8406,-3.9446 -1.2297,-1.77434 -0.4864,-4.74127 -2.3642,-5.89185 -0.4298,-1.77434 -0.7336,-4.56675 0.4008,-6.30231 -0.1535,-0.99059 0.057,-2.42073 0.2569,-3.14308 -0.7336,-0.83061 -1.1344,-2.26883 -0.9146,-3.66988 -0.047,-0.61246 -0.7433,-0.57367 -0.7918,-1.1829 0.5817,-1.25884 1.4592,-2.22196 2.6227,-2.88775 -0.057,-0.60922 0.362,-1.34449 0.7918,-1.84059 0.019,-0.53328 -0.2294,-0.82092 -0.1341,-1.43984 0.724,-0.18261 1.3817,-0.01 1.9634,-0.12605 1.6402,-0.35066 2.3464,-1.60951 3.5471,-2.36417 1.296,0.5365 2.4983,-0.3038 3.804,0.25856 1.1441,-0.47672 1.7921,-1.65961 3.0219,-1.70809 1.3736,-0.0469 2.3545,1.49639 3.6699,1.44791 1.3541,-0.33127 2.4595,-0.88717 3.2788,-1.44791 0.8581,-0.58983 1.8115,-0.69487 2.6227,-1.30733 -0.076,-1.08593 -0.095,-2.65828 0.2666,-3.67958 0.1616,-0.16968 0.5624,-0.12281 0.9147,-0.12281 -0.1051,-0.61892 0.2004,-0.84839 0.1341,-1.44792 0.8306,-0.94373 2.2123,-0.62861 3.1463,-1.57234 0.3717,0.37006 1.3057,0.16967 1.7065,0.53327 0.5817,-0.5058 1.3445,-0.84031 1.965,-1.31541 2.2107,0.45733 3.8218,-1.29763 4.8512,-2.49668 0.3151,-0.3636 0.4864,-0.85808 0.7918,-1.17482 0.4299,-0.45732 1.107,-0.55266 1.3154,-0.92433 0.362,-0.6464 0.1034,-1.36389 0.257,-1.8406 0.4379,-0.25533 1.0681,-0.32481 1.3057,-0.78214 0.5058,-0.88717 -0.6464,-1.23783 0.1341,-1.84059 0.3894,-0.10343 0.8872,0.25855 1.582,0 0.1519,-1.01968 1.2007,-1.1425 2.222,-1.3041 0.5624,-0.43793 0.467,-1.24107 0.9146,-1.71778 0.438,-0.43793 1.1522,-0.26825 1.448,-0.91464 -0.1051,-1.11664 -0.9066,-1.53357 -1.3074,-2.36418 0.7822,-0.64962 1.8875,-0.99059 1.9634,-2.35448 -0.3328,-0.29734 -0.5898,-0.73527 -1.1796,-1.18289 -1.0989,-0.81122 -1.965,-0.78213 -1.0488,-2.23167 1.0779,-0.45732 1.4205,-0.13251 2.8894,-0.25532 0.3894,-0.42985 1.0762,-0.58014 1.5626,-0.92434 0.1035,-0.53327 -0.1907,-0.66901 -0.1228,-1.17482 1.1425,-0.0372 0.7531,-0.81122 1.1797,-1.57234 -0.3232,-0.72557 -1.2766,-0.96312 -1.5724,-1.8406 -0.2472,-0.71588 0.086,-1.58366 -0.2666,-2.49022 2.2963,-0.26502 0.2763,-1.74202 -0.2666,-2.22843 0.2957,-0.56559 -0.3248,-1.20229 -0.3911,-1.8406 -0.543,0.10342 -0.6205,-0.25856 -1.0472,-0.26825 -0.9243,-0.67548 -1.0891,-1.6483 -1.5755,-2.74555 -0.1988,-0.46701 -0.543,-0.88717 -0.6561,-1.3154 -0.1245,-0.48641 0,-1.02938 -0.1245,-1.57235 -0.4767,-2.10885 -2.3835,-3.69897 -2.8893,-5.51048 -0.1616,-0.57206 -0.3798,-1.53356 -0.265,-2.10885 0.076,-0.32158 0.3894,-0.42662 0.7902,-0.91141 0.286,-0.3442 0.4476,-0.93404 0.6577,-1.17482 0.3038,-0.36359 0.7902,-0.47671 1.0471,-0.79183 0.5721,-0.68517 0.6674,-1.43014 1.3154,-1.96341 0.3717,-0.1519 0.7741,-0.27795 1.0391,-0.53327 0.3717,-0.6981 0.3539,-0.91464 0.4008,-1.57558 0.019,-0.26502 0.2682,-0.5058 0.2585,-0.64639 -0.011,-0.1519 -0.2391,-0.41046 -0.2585,-0.52358 -0.4299,-2.11854 1.7452,-3.01379 2.2316,-4.33728 -0.4104,-0.20199 -0.4476,-0.77405 -0.5332,-1.30732 0.5235,-0.65932 0.7126,-1.65961 1.0471,-2.49022 1.3914,-0.54297 1.7647,-2.08623 2.8878,-2.88775 0.029,-1.6887 1.3913,-2.01028 1.8406,-3.27882 -0.7127,0.0953 -0.4477,-0.77406 -0.6464,-1.17967 -0.543,-0.67871 -1.107,-1.07947 -1.3154,-1.96664 -0.2295,-0.95343 0.037,-2.25106 -0.1325,-3.41133 -0.2117,-1.37358 -1.9263,-2.52739 -1.9748,-3.80401 -0.01,-0.38137 0.4202,-1.69839 0.7902,-2.10885 0.1439,-0.1519 0.6868,-0.3442 1.0488,-0.51388 1.2669,-0.63831 0.7902,-0.25855 1.9747,0 1.448,0.30542 2.0863,-0.30542 2.487,-1.44791 0.4105,0.0662 0.5333,-0.1616 0.6577,-0.39107 -15.8172,1.17482 -32.4423,0.82092 -49.0691,1.57235 -11.0307,0.50741 -22.8322,0 -34.493,0.5268 -3.5568,0.1616 -7.5321,0.33128 -10.8869,0 -2.6793,-0.26825 -5.8821,0 -8.6665,-0.13574 -3.1834,-0.1422 -6.1956,-1.08593 -9.3048,-1.30732 -2.3447,-0.1616 -4.8899,-0.11312 -7.2169,0 -13.6615,0.63184 -27.5136,-0.0953 -40.5368,-0.26502 -0.105,1.17158 0.047,2.13309 0,3.54707 -1.0585,1.41074 -3.442,2.90714 -5.5105,1.43983 0.286,-0.91464 -0.037,-1.49963 0.2667,-2.23166 0.1438,-0.34421 0.4379,-0.42016 0.5251,-0.91465 0.039,-0.23916 -0.029,-0.61892 0,-0.91464 -0.3345,0.01 -0.5526,-0.076 -0.6577,-0.26825 -1.1925,0.71588 -1.1635,2.95724 -3.2804,2.36417 -1.0682,0.62215 -1.0585,2.77464 -2.6227,2.49022 -1.1813,1.26855 -1.8778,3.02996 -2.3642,4.98691 0.4299,0.53327 0.4202,1.50609 1.0488,1.8406 0.2957,0.3038 0.5155,-0.0501 0.9146,0 0.4961,-0.29734 0.362,-1.22168 1.0585,-1.31541 1.4964,0.38137 2.9362,0.81769 3.6699,1.97311 -0.6109,0.66578 -0.4574,2.41104 0,3.14631 -0.3248,0.0566 -0.4671,0.32158 -0.6577,0.52357 -0.2295,1.05685 -0.8096,1.89716 -1.1813,3.01057 -0.7337,2.22197 -0.4573,4.88187 -1.1813,6.8275 0.4088,0.86778 1.2685,0.83061 1.4479,1.69839 0.3054,1.53357 -0.8193,1.43984 -1.0488,2.24136 -0.2375,0.7983 -0.037,1.55296 0.3911,1.83091 1.0213,0.22785 0.8209,-0.75466 1.0488,-1.31541 1.0391,-0.30542 0.6092,-2.08946 1.4398,-2.62273 1.9731,-0.33451 2.2301,1.3251 1.574,2.88775 -0.5527,0.39107 -0.8678,0.81122 -1.1732,1.31541 -0.3151,0.4961 -0.4202,1.19259 -0.7918,1.70808 -0.068,0.0856 -0.4865,0.33451 -0.6577,0.52358 -0.5349,0.58014 -1.1442,0.76436 -1.5724,1.30733 -0.3814,0.48641 -0.2957,1.26854 -0.6577,1.9731 -0.2666,0.51389 -0.8581,0.86778 -1.0488,1.30733 -0.1244,0.29734 -0.2488,0.84839 -0.391,1.31541 -0.9147,2.99279 -0.9729,6.36533 -1.0488,10.09662 0.068,0.45732 0.3523,0.69487 0.3911,1.17966 -0.6771,1.20229 -2.4127,1.35419 -3.2805,2.36418 0.4105,1.54649 1.7921,2.42073 1.1829,4.58614 0.4477,0.91464 1.191,1.51579 2.0976,1.97311 0.858,-0.11312 1.4204,-0.5058 2.0975,-0.7789 0.2101,0.48641 0.5333,0.86778 0.6577,1.43014 -0.068,0.63831 -0.7724,0.71264 -1.0488,1.3154 -0.1147,0.25533 0.019,0.68518 -0.1341,0.92434 -0.7821,1.17159 -2.4401,1.52387 -3.2788,0.25533 -0.5527,-0.84031 -0.019,-3.19479 -1.4398,-2.6195 -0.066,0.39753 0.286,1.70485 0,2.09592 -1.2395,0.3636 -2.2123,0.65609 -3.2789,0.91464 -1.0859,-0.39106 -2.3738,-0.36359 -3.2788,-0.52357 -0.1244,0.66578 0.8387,0.79183 1.3154,1.17966 0.362,0.30542 0.8096,0.87748 1.1732,1.31541 0.8969,1.06008 1.7631,2.67929 0.9244,4.06256 0.6868,0.31512 1.5061,0.51388 2.0975,0.91464 0,0.30542 0,0.61892 0,0.92434 1.0294,0.5058 2.146,0.91465 2.0975,2.48699 0.2473,0.12605 0.438,-0.38783 0.5236,0 -0.019,0.63185 0.5058,0.72558 0.5236,1.31541 -0.1616,0.58337 -0.7902,0.6884 -1.0472,1.18289 -0.076,0.61892 -0.1906,1.19906 -0.1341,1.96342 0.3636,0.43793 0.9631,0.30542 1.1813,1.04715 0.105,0.3442 -0.029,1.81151 -0.1325,2.49992 -0.1535,1.00998 -0.7725,2.17187 -1.1829,2.36417 -0.9631,-0.74497 -1.2201,-2.19288 -1.9634,-3.156 0.4298,-0.40077 0.1535,-1.50609 0.391,-2.09916 -1.5545,0.58337 -0.7821,2.49022 -1.4398,3.93975 -0.4379,0.95343 -1.4786,1.44792 -1.5723,2.35448 -0.1148,1.00029 0.5801,1.98281 0.6577,3.0235 0.076,1.00998 -0.3345,1.72263 -0.1342,2.75524 -0.4007,0.42661 -0.6011,1.04715 -1.1812,1.31379 0.21,1.94725 -1.3914,2.09915 -1.3154,3.93005 -0.5721,0.51388 -0.905,1.27824 -0.7806,2.48699 0.4186,0.5058 1.5255,0.49611 1.8309,0.40076 0.076,0.3636 0.2004,0.68841 0.2667,1.04716 -0.4864,0.87747 -1.6499,1.06008 -1.9634,2.10885 1.0956,0.85808 1.1635,-0.48641 2.23,-0.66902 0.058,0.56559 0.7918,0.42985 0.9147,0.92434 0.047,0.67871 -0.4961,0.95666 -0.1342,1.57558 -0.1907,0.20846 -0.6771,0.10342 -0.6577,0.52358 -0.01,0.64639 0.1342,0.63831 0,1.18289 -1.3445,0.17937 -2.8118,0.7789 -3.7943,0.91464 -0.1422,0.72235 -0.8096,1.3041 -0.2666,1.96342 -1.0197,0.55266 -2.4127,0.73203 -3.2788,1.44791 -0.362,1.73556 -2.2786,1.91655 -2.0976,4.19508 0.4186,0.41046 1.5821,0.0663 1.7065,0.78213 -0.362,0.9809 -0.4961,1.68547 -0.9243,2.6292 -0.181,0.40076 -0.543,0.86778 -0.6481,1.3154 -0.1147,0.43793 0.1423,1.06978 0,1.57558 -0.2763,0.94373 -1.22,1.41075 -1.582,2.09592 -0.6577,1.25885 -0.086,2.51931 -0.7821,3.93006 -0.3814,0.0194 -0.8581,-0.0695 -1.0488,0.13251 -0.086,0.78213 -0.9243,1.24915 -1.1813,2.10562 -0.286,0.95665 -0.1244,2.31731 -0.391,3.40486 -0.1051,0.40076 -0.3814,0.61892 -0.4008,0.91464 -0.01,0.30381 0.467,0.68518 0.1341,0.92434 1.2766,1.34449 3.135,1.98281 2.4967,4.59584 -0.086,0.34097 -0.7627,1.3348 -0.7918,1.57235 -0.066,0.60922 0.3523,1.24915 0.2666,1.70808 -0.1131,0.57206 -0.7724,0.85809 -0.7902,1.30733 0.9146,2.20904 -0.068,5.59613 1.3154,7.21534 -0.8015,0.5058 0.1519,1.29763 -0.1341,1.96341 1.2007,-0.1519 1.4479,0.64962 1.9634,1.18289 0.1713,1.43984 0.181,3.06228 0.7918,4.07227 -0.4298,0.53327 -0.6771,1.23784 -0.9146,1.96341 0.8387,1.21198 0.572,2.00058 -0.1438,2.75524 -0.5527,0.59953 -0.9729,1.01968 -1.3058,1.70809 0.5058,1.01968 1.6403,1.8212 1.574,3.01056 0.7143,0.56236 1.5627,0.65932 1.9634,1.58366 0.2198,0.47671 0.066,1.32187 0.2667,1.8309 0.1809,0.44763 0.5138,0.44763 0.6577,0.91465 -0.438,2.43043 -3.1367,3.20933 -2.4983,6.29907 -0.3426,0.53328 -0.6384,1.10856 -1.1732,1.43984 -0.4202,0.0663 -0.4671,-0.22785 -0.9244,-0.13251 -0.2101,1.54326 -0.9065,2.60334 -1.6968,3.54707 0.362,1.96341 -1.2588,3.34507 -0.9243,5.24223 -0.4573,0.45732 -0.8015,1.02938 -1.1829,1.57234 -0.019,0.83062 0,2.23167 0.6577,2.75525 -0.4298,0.47671 -0.7142,1.54649 -0.3911,2.36417 -0.3813,0.63185 -0.6399,1.38166 -0.9243,2.09915 0.9987,1.14573 2.0378,2.25268 3.6764,2.75848 z"
     id="path4644"
     inkscape:connector-curvature="0"
     style="clip-rule:evenodd;fill-rule:evenodd;stroke-width:1.61597705" /><path
     d="m 1160.6064,123.77403 c 1.0779,0.0598 2.2123,0.31511 3.0219,0.52681 0.2763,1.2847 0.829,2.2559 0.6577,3.66826 -0.068,0.5559 -0.4864,1.11665 -0.5252,1.70809 -0.1244,1.62244 0.3345,3.37416 -0.3911,4.8544 1.4302,0.92434 1.1054,3.99308 0.3911,5.37474 0.3717,1.00998 1.7259,1.21198 1.5724,2.36417 0.648,-1.89715 1.6596,-3.45011 1.5739,-5.7658 0.4299,-0.53328 0.5527,-1.37358 0.7822,-2.09916 -0.068,-0.54297 -0.3717,-0.84515 -0.3911,-1.44791 0.2472,-0.62862 0.7336,-1.00999 1.0471,-1.57235 -0.3813,-0.77405 0.049,-1.52387 0.2683,-2.09915 -0.039,-0.53328 -0.2472,-0.88718 -0.3911,-1.31541 0.7434,-0.46702 1.6402,-1.20875 2.6211,-1.03907 1.4964,-1.69516 2.3448,-4.04318 2.7553,-6.82751 -4.5377,-0.23593 -8.1704,0.16483 -12.5933,-0.13251 -0.019,0.49611 0.6577,0.30542 0.7821,0.65932 -0.5914,0.40723 0.2666,1.17159 0,2.09593 -0.6949,0.0469 -1.1053,0.38137 -1.1813,1.04715 z"
     id="path4646"
     inkscape:connector-curvature="0"
     style="clip-rule:evenodd;fill-rule:evenodd;stroke-width:1.61597705" /><path
     d="m 1169.7868,138.99007 c 0.6674,-0.46702 1.3348,-0.95343 1.7162,-1.70486 -0.3248,-1.43337 0.391,-3.23195 -1.0585,-4.06256 -0.1244,0 -0.2586,0 -0.3911,0 -0.5332,0.95342 -1.0859,1.88746 -1.4398,3.01056 -1.3817,0.59307 -1.3057,2.63243 -1.574,4.33082 -0.4379,0.57206 -0.4573,1.55295 -0.6577,2.36417 0.4574,0.45733 1.1151,0.72235 1.0472,1.70486 0.3248,0.0695 0.3248,-0.38783 0.3911,-0.52358 0.3619,-0.73203 0.6011,-1.38166 0.9146,-2.09592 0.404,-0.91464 1.0989,-1.8212 1.052,-3.02349 z"
     id="path4648"
     inkscape:connector-curvature="0"
     style="clip-rule:evenodd;fill-rule:evenodd;stroke-width:1.61597705" /><path
     d="m 1158.2503,143.06233 c 0.5527,0.93404 0.9825,2.38357 2.2301,2.23167 0.5914,-0.63993 0.7062,-1.74526 1.1829,-2.49992 -0.039,-1.01968 -0.058,-1.19906 0.1244,-1.96341 -0.037,-0.26502 -0.2666,-0.3539 -0.3911,-0.52358 0.2861,-0.54297 0.7159,-0.95343 1.0488,-1.43984 0.066,-1.1134 0.4185,-1.94402 0.5236,-3.02349 -1.4302,0.17291 -1.0391,-1.49639 -2.3642,-1.43983 -1.5917,2.07976 -1.5529,5.78843 -2.3545,8.6584 z"
     id="path4650"
     inkscape:connector-curvature="0"
     style="clip-rule:evenodd;fill-rule:evenodd;stroke-width:1.61597705" /><path
     d="m 1162.1788,153.15896 c 0.076,0.57205 0.8678,1.26854 1.1926,1.44791 0.2957,-0.57205 0.467,-1.28793 0.9146,-1.70809 0.2957,0.27795 0.2763,0.85809 0.9147,0.79183 0.3425,-0.9809 1.0487,-2.53385 0.4007,-3.67958 0.5721,-0.77405 0.2376,-1.77434 0,-2.62273 0.4089,-0.28441 0.7725,-0.61892 1.1732,-0.92434 -0.068,-0.45732 -0.3814,-0.58013 -0.1341,-1.03907 -0.4864,-0.12281 -0.9244,-0.30542 -1.4398,-0.39107 -0.3426,0.42016 -0.362,1.77435 -1.0488,1.43014 -0.1244,-0.63831 0.4298,-0.60922 0.2569,-1.30409 -1.8196,0.37006 -0.8096,2.79402 -1.1732,5.11941 -0.1987,1.27663 -1.1522,2.05876 -1.0568,2.87968 z"
     id="path4652"
     inkscape:connector-curvature="0"
     style="clip-rule:evenodd;fill-rule:evenodd;stroke-width:1.61597705" /><path
     d="m 1165.3348,165.22869 c -0.047,-1.1829 0.105,-2.16541 0.6577,-2.75524 0.076,-0.84031 0.2957,-1.53356 0.5252,-2.23167 1.115,-0.62861 2.3835,-1.4867 2.2219,-2.75524 -0.068,-0.61892 -1.0584,-1.05685 -1.4398,-1.8309 -0.3911,-0.79829 -0.1632,-1.22814 -0.3911,-1.96341 -0.029,-0.11312 -0.1147,-0.1616 -0.2666,-0.13251 -1.2685,0.56236 -0.8484,2.41104 -1.574,3.27882 -0.4088,-0.0663 -0.4573,0.22785 -0.9146,0.12281 -0.057,-0.24563 0.181,-0.79183 -0.2666,-0.65609 -0.7628,0.33128 -1.3914,0.7886 -2.3642,0.92434 -0.648,0.80799 -0.4476,1.82121 -0.648,2.74555 -0.3345,1.56265 -1.5061,2.8021 -1.574,4.59584 -0.066,1.66607 0.5527,3.17216 0.257,5.37474 0.1535,0.38137 0.2763,0.78213 0.5348,1.05685 -0.3054,0.13574 -0.4767,0.39106 -0.5348,0.78213 0.5155,0.23108 1.0972,0.40076 1.5739,0.65932 0.5527,1.59012 1.6015,2.68575 1.9731,4.46009 0.4574,0.10343 0.7434,0.39107 1.1829,0.52358 0.2957,-0.40076 0.3523,-1.03907 0.5139,-1.57235 0.4864,0 0.9728,0 1.4479,0 0.5721,-0.35389 0.4202,-1.07624 0.6577,-1.84059 0.2376,-0.76436 0.8581,-1.58205 0.9147,-2.35448 0.1147,-1.38166 -0.5818,-2.8118 -1.1813,-3.42426 -0.2004,-0.19876 -0.362,-0.55266 -0.648,-0.51388 -0.5624,1.3251 -1.6111,3.73776 -3.413,2.22197 -0.068,-0.85808 0.1245,-1.53356 0,-2.09592 1.5627,-0.22786 2.0297,-1.54326 2.7553,-2.6195 z"
     id="path4654"
     inkscape:connector-curvature="0"
     style="clip-rule:evenodd;fill-rule:evenodd;stroke-width:1.61597705" /><path
     d="m 536.65834,131.7518 c 1.46731,-0.3345 1.24915,-3.73775 0.72396,-4.77682 -2.03128,-0.85647 -2.62111,1.02129 -2.27853,2.59202 0.15352,0.68841 0.91465,1.20229 0.83062,1.76465 0.53327,-0.1519 0.43954,0.31512 0.72395,0.42015 z"
     id="path4577"
     inkscape:connector-curvature="0"
     style="clip-rule:evenodd;fill-rule:evenodd;stroke-width:1.61597705" /><path
     d="m 515.19817,131.7518 c -0.6771,-0.21977 -0.86617,-1.05846 -1.44792,-1.14411 -1.1732,-0.16321 -0.92434,0.73366 -1.14411,1.65799 -0.22947,1.00029 -0.41046,1.05847 0,1.658 1.84868,0.53489 3.156,-0.33289 2.59203,-2.17188 z"
     id="path4579"
     inkscape:connector-curvature="0"
     style="clip-rule:evenodd;fill-rule:evenodd;stroke-width:1.61597705" /><path
     d="m 520.28041,132.98964 c 0.84839,-0.67709 0.37168,-1.8002 -0.82899,-1.44791 -1.14573,0.33289 -1.03099,1.80181 0,1.85837 0.20846,0.0194 0.71426,-0.3135 0.82899,-0.41046 z"
     id="path4581"
     inkscape:connector-curvature="0"
     style="clip-rule:evenodd;fill-rule:evenodd;stroke-width:1.61597705" /><path
     d="m 521.72995,135.58329 c -0.24886,0.31511 -0.59145,0.23916 -0.62054,0.72557 -0.0582,1.09563 1.72425,2.06683 2.69707,1.03907 0.17129,-0.89686 0.24886,-2.22197 0,-3.42264 -0.23594,-0.18099 -0.58014,-0.24724 -1.03908,-0.21007 -0.19068,0.29734 -0.5058,0.45732 -0.41045,1.04069 -0.49449,-0.0388 -0.39915,0.53165 -0.627,0.82738 z"
     id="path4583"
     inkscape:connector-curvature="0"
     style="clip-rule:evenodd;fill-rule:evenodd;stroke-width:1.61597705" /><path
     d="m 528.36515,137.55639 c 0.47671,0.01 0.69648,0.22947 0.84031,0.20039 0.91464,-0.15352 1.79212,-1.42045 2.68898,-1.04069 0.0953,-0.41854 0.53327,-0.49611 0.72234,-0.8193 0.0582,-0.62054 -0.0759,-1.04069 -0.20846,-1.45762 -0.82091,-0.13412 -1.89715,-0.35389 -2.79402,-0.10503 -0.62054,0.43793 -1.44145,1.24753 -2.07976,1.77434 -0.37976,0.3038 -0.8193,0.27633 -0.829,0.82899 -0.01,1.09564 0.98251,0.59145 1.65961,0.61892 z"
     id="path4585"
     inkscape:connector-curvature="0"
     style="clip-rule:evenodd;fill-rule:evenodd;stroke-width:1.61597705" /><path
     d="m 645.11303,203.59653 c -1.08594,-1.04715 -1.68708,-2.59203 -2.69707,-3.72806 -0.23754,-0.076 0.0953,-0.72396 -0.3038,-0.61892 -2.15571,-0.86778 -5.27293,-1.29763 -8.19947,-1.04069 -0.4961,-0.61084 -0.99059,-1.61113 -1.64991,-2.07814 -1.37358,-0.95343 -3.85249,-0.92434 -6.01628,-1.44792 -0.94373,-0.21977 -2.17349,-0.85808 -2.90876,-0.83061 -0.33289,0.01 -0.62862,0.23755 -0.92434,0.31511 -0.54297,0.12282 -1.16189,0.15191 -1.76303,0.30381 -0.59145,0.15352 -1.21037,0.36198 -1.77434,0.42015 -1.72425,0.1616 -3.3273,-0.33451 -4.55544,-0.5155 -1.55457,-0.23593 -3.1754,-0.24724 -4.67179,-0.52357 -1.35419,-1.34449 -3.44365,-1.88746 -5.17759,-2.89745 -1.35419,-0.79183 -2.5177,-1.8309 -3.93814,-2.39326 -0.6674,-0.52358 -1.1732,-1.7905 -2.1848,-2.06845 -0.58983,-0.1616 -1.35419,0.0566 -1.96341,0 -1.55296,-0.1616 -2.86836,-0.67548 -3.93814,-1.1425 -0.35228,0 -0.69649,0 -1.04069,0 -4.67987,-1.24915 -9.65708,-2.73585 -14.51794,-3.8331 -0.75466,-0.17129 -1.54487,-0.22946 -2.27852,-0.41045 -0.73366,-0.19069 -1.40106,-0.61084 -2.07815,-0.829 -1.58204,-0.5155 -3.18509,-0.76436 -4.76713,-1.14573 -2.03937,-0.4961 -3.89774,-1.00998 -5.70925,-1.56265 -2.32539,-0.71426 -4.30981,-1.09725 -6.73216,-1.85837 -0.8193,-0.25694 -2.76494,-0.78213 -3.21095,-1.14411 -0.77244,-0.62054 -0.74335,-1.9925 -1.14411,-3.21257 -0.20038,-0.63023 -0.64801,-1.36388 -0.93403,-2.07814 -0.93404,-2.34478 -2.16541,-4.00439 -3.8331,-5.38605 -1.9925,0.3135 -3.34507,-1.90847 -5.18567,-2.27853 -0.48641,-0.10504 -0.99221,0.0662 -1.44953,0 -1.36389,-0.20038 -2.4676,-1.24754 -4.04156,-1.14411 -0.58175,-1.50609 -2.46922,-1.07786 -3.93814,-1.658 -0.63993,-0.24724 -1.19097,-0.70618 -1.66769,-1.04068 -0.53489,-0.36198 -1.05846,-0.72396 -1.44953,-1.23946 -1.20875,-0.34259 -1.95372,-1.06816 -2.89745,-1.86807 -0.76274,-0.63993 -2.05875,-1.81151 -3.10914,-1.76465 -0.54296,0.0291 -1.23945,0.57206 -1.86807,0.93404 -1.9731,1.11502 -3.08813,2.73585 -5.08224,3.52768 -0.41854,-0.5058 -2.1541,-0.49611 -2.38357,-1.34288 -0.1519,-0.54458 0.54297,-1.97472 0.92434,-2.70838 0.31511,-0.59144 1.03099,-1.85029 1.35419,-2.26883 0.3442,-0.46702 1.21198,-0.87586 1.34449,-1.44791 0.0856,-0.38138 -0.12281,-0.96313 -0.0953,-1.45923 0.0194,-0.52358 0.0856,-1.36227 0.3038,-1.86807 0.21977,-0.48641 0.86617,-0.83869 1.23946,-1.24754 1.27823,-1.36388 2.45951,-2.70676 2.8021,-4.76713 0.23917,-1.41075 -0.0372,-1.87776 -0.51388,-2.68737 -0.59953,-1.0019 -1.35419,-2.07814 -2.48699,-2.28822 -1.48831,-0.25694 -2.32701,0.42985 -3.63272,0.73365 -0.86777,0.19069 -1.8212,0.32481 -2.4886,0.62054 -0.74335,0.32319 -1.24753,0.93403 -1.96503,1.02937 -0.88717,1.91817 -2.8118,2.80372 -4.77521,3.63272 -0.6674,-0.96312 -2.24136,0.20038 -3.62302,-0.3038 -0.59953,0.36198 -0.87748,1.05685 -1.56265,1.34449 -0.32481,0.0469 -0.3636,-0.19069 -0.72557,-0.10504 -1.07625,0.79991 -2.44983,1.40105 -3.51799,2.17349 -0.41046,0.29734 -0.73365,0.6981 -1.14411,0.84031 -0.37167,0.12443 -0.87747,0.0759 -1.23945,0.20038 -0.21978,0.076 -0.49772,0.18099 -0.73366,0.3135 -1.91816,1.0213 -4.13851,1.86807 -6.74185,1.97472 -1.09564,0.72396 -2.21066,0.9809 -3.72806,1.55457 -1.06655,0.38945 -2.21066,0.79022 -3.3176,1.1328 -1.43984,0.44763 -3.43234,1.42045 -4.87217,1.56427 -1.01161,0.0873 -2.12501,-0.0194 -3.22226,-0.11312 -1.00029,-0.0873 -2.24944,0.0194 -3.00249,-0.41046 -0.42015,-0.24724 -0.71426,-0.85808 -1.13441,-1.14411 -0.93404,-0.60922 -2.18319,-0.63993 -3.22226,-1.13441 -0.829,-0.39915 -1.23946,-1.09725 -2.06845,-1.24754 -0.54297,1.27662 -0.43793,3.02188 -1.55296,3.83148 -0.84031,0.61084 -2.05875,0.59145 -3.21256,0.10504 -1.09725,0.59953 -2.46921,0.93404 -3.73775,1.35257 -0.75467,1.61275 -0.59145,3.44365 -0.62054,5.49109 -0.01,0.64801 -0.18099,1.31541 -0.21008,1.97473 -0.13251,2.60172 -0.0194,5.34888 -0.30542,7.97969 -0.13251,1.09725 -0.44601,2.12501 -0.52357,3.22226 -0.13251,1.76465 -0.12282,3.64241 -0.10343,5.38605 0.01,0.91465 0.25694,1.8503 0.31512,2.79403 0.0759,1.42206 -0.097,2.89906 0,4.25325 0.0469,0.6577 0.23593,1.30571 0.31188,1.97472 0.14383,1.53357 0.10504,3.12692 0.83062,4.46172 -0.50581,0.35228 -1.10533,0.6577 -1.66769,1.03907 -1.19098,0.81122 -1.93594,1.44145 -2.48861,2.68899 -0.12281,-0.72396 -1.08593,-0.72396 -1.55295,-0.62054 -1.30733,0.31512 -1.91817,2.68899 -2.69868,3.42264 -0.46702,-0.0194 -0.32481,-0.64801 -0.82092,-0.62054 -0.61892,0.34421 -1.39136,0.097 -1.97311,0.30542 -0.73527,0.26664 -1.26854,1.1425 -1.76464,1.44792 -0.71427,0.44763 -1.47701,0.62861 -2.18319,0.93403 -0.69649,0.3232 -1.3251,0.73366 -1.96503,1.14412 -1.1732,0.74335 -2.53385,1.59173 -3.42102,2.79402 -0.66902,0.90656 -1.07786,2.32539 -1.44953,3.42264 -0.34259,1.00999 -0.49611,2.25106 -0.93404,3.22226 -0.90494,2.03936 -3.87996,2.67767 -4.14498,5.38605 -0.1923,0.47671 0.37006,0.18099 0.41854,0.42015 -0.99059,1.32349 -1.44792,4.25164 -0.52358,6.00659 -0.0873,0.57206 -0.6577,0.6674 -0.72395,1.24754 0.98089,1.19097 3.10752,0.54296 4.76551,0.93403 0.90656,0.21008 1.37358,1.10694 1.97473,1.44792 0.40884,1.97472 1.37358,3.39516 1.96502,5.18728 -0.53488,0.5058 -1.57557,0.37976 -2.07006,1.03908 -0.35229,0.47671 -0.48641,1.8212 -0.72396,2.79402 -0.22947,0.94535 -0.6771,2.09754 -0.72396,2.90876 -0.0856,1.24753 0.3539,2.4676 0.20038,3.52768 -0.3038,0.21007 0.40077,0.28602 0.3135,0.62053 -0.37006,0.61892 -0.64639,1.36389 -0.93403,2.06845 0.40076,1.43014 0.15352,3.38386 0.31511,5.09033 0.0857,0.88556 0.34259,1.9828 0.20846,3.00249 -0.21815,1.56265 -1.35257,2.74554 -1.65637,4.04155 -0.31512,1.31541 -0.0582,2.72777 0.10342,3.93814 0.14221,1.20067 0.53327,2.31731 0.71426,3.52929 -0.43793,0.51389 -2.03128,0.65609 -2.17349,1.55296 -0.0566,0.36359 0.56236,1.37358 0.72396,1.86807 1.22976,3.62302 0.6577,7.37855 -1.34449,9.6393 1.09725,1.35419 2.82149,1.77434 4.14659,2.80211 0.8387,0.648 1.43014,1.63052 2.18319,2.38356 0.77405,0.79183 1.64183,1.39136 2.37387,2.1848 0.77405,1.61113 1.72586,3.60202 4.56675,2.79403 2.23167,2.23166 6.51077,0 9.22885,1.55295 0.40076,0.23109 0.57205,0.6674 0.93403,1.04069 0.76436,0.77244 1.58204,1.15381 1.86807,2.27853 0.41046,0 0.82092,0 1.24107,0 1.32349,1.26692 2.68737,2.4983 3.52768,4.25163 1.55457,0.63024 3.61171,0.74335 5.17597,1.3445 0.29573,1.03099 0.79991,1.8309 1.55457,2.39164 0.85809,2.73585 3.09783,4.09004 4.77522,6.00659 0.3442,0.29572 0.32481,-0.43793 0.83061,-0.3038 0.69648,0.88717 1.65799,1.51578 2.28822,2.4886 -0.0759,2.55486 0.33451,4.63301 1.3348,6.11001 1.00998,0.52519 2.32539,0.72396 3.73775,0.83061 1.00029,0.97282 2.03129,1.91655 2.28823,3.6311 0.82091,-0.0372 1.90685,-0.19876 2.58395,0.10504 1.36388,0.61084 2.23004,3.08813 3.00248,4.1466 -0.19068,0.45732 -0.44762,0.85647 -0.51388,1.44791 1.92463,0.84031 3.94622,1.59174 6.53986,1.76465 0.3038,1.07624 1.02938,2.07815 1.75495,3.00249 1.02938,1.31379 2.01028,2.78433 3.42102,3.42102 0.44763,0.21008 0.9906,0.15352 1.44792,0.31512 0.77405,0.25694 1.54487,0.77243 2.28822,1.13441 0.78214,0.39915 1.59336,0.73366 2.27853,1.24754 -1.00029,3.72806 -3.61171,6.83558 -3.11722,11.50737 0.0856,0.77244 0.49611,1.59174 0.63023,2.48699 0.0953,0.63023 -0.01,1.24915 0.10342,1.86807 0.21008,1.13603 0.60923,2.22197 0.72396,3.42425 -0.8193,1.1425 -0.25694,2.31731 -0.10342,3.93652 0.10342,1.0116 -0.0113,2.05876 0.10342,2.90876 0.13413,0.87748 0.74335,1.61113 0.83061,2.37387 0.1713,1.60144 -0.54458,3.15601 0,4.67341 1.30571,0.38945 2.59203,0.79991 3.63111,1.45761 -0.0194,1.35419 0.84838,1.64991 0.92433,2.89745 0.11474,1.679 -0.93403,3.10914 -1.64991,4.04317 -0.3038,0.39107 -0.63023,0.8193 -0.93403,1.24754 -0.58014,0.7999 -1.59174,1.86806 -1.658,2.68898 -0.0566,0.6577 0.32482,1.40105 0.41046,2.07815 0.10342,0.77243 0.12282,1.49639 0.10342,2.48699 -0.25694,0.0873 -0.71426,-0.37006 -0.72395,0.10503 -0.1713,2.1638 1.54487,3.58424 1.55457,5.80621 0,0.46702 -0.23755,1.14411 -0.30542,1.65799 -0.0856,0.57206 -0.28441,1.23946 -0.21816,1.76465 0.0566,0.38945 0.41046,0.94373 0.62862,1.34288 0.75466,1.39135 1.77434,2.30761 2.1751,3.94783 0.28603,1.15219 0.38137,2.41104 0.52358,3.51798 0.1519,1.15381 0.12281,2.45952 0.62053,3.42264 0.26664,0.51388 1.00999,1.08594 1.55457,1.55295 1.71617,1.46893 4.08842,2.8215 6.11001,3.5293 3.24165,1.11341 6.95032,1.40105 10.06754,2.79402 0.31188,1.39136 1.33318,1.95372 2.06683,3.01218 0.91465,1.31379 1.36389,2.79403 2.59365,3.52768 0.0759,0.22947 -0.1923,0.79991 0.20846,0.72396 45.06637,0 90.13112,0 135.19587,0 0.14383,-0.63023 0.85809,-0.6577 1.24915,-1.04069 -0.0953,-1.26692 -0.40076,-2.44982 -0.31511,-3.6214 0.0291,-0.3636 0.23916,-0.78052 0.21169,-1.14412 -0.0388,-0.41045 -0.3539,-1.07785 -0.51549,-1.55457 -0.47672,-1.38166 -0.8193,-3.04126 0,-4.35667 -0.44763,-0.58983 -1.23946,-0.83869 -1.55457,-1.55295 0.42015,-0.61084 0.86778,-1.19259 1.34449,-1.86807 0.76436,-1.08756 1.69839,-1.79212 1.34449,-3.8428 -0.90656,-1.39135 -1.89716,-2.71807 -2.8021,-4.13851 0.36359,-1.26693 0.648,-2.40135 0.42015,-3.73776 -0.11312,-0.6674 -0.68679,-1.19097 -0.72557,-1.76465 -0.0194,-0.37975 0.23108,-0.89525 0.30542,-1.34287 0.30542,-1.71779 0.0856,-3.30952 0.21977,-4.97721 -0.86778,-0.44763 -2.17349,-0.45732 -3.32891,-0.61892 0.58175,-1.69839 0.60114,-3.23196 0.21169,-5.08225 -0.10504,-0.5155 -0.45732,-0.95504 -0.5155,-1.44953 -0.0759,-0.61084 0.1713,-1.37358 0,-1.86807 -0.21007,-0.61084 -0.95342,-0.96312 -1.14411,-1.55457 -0.3135,-0.99059 -0.22785,-2.37387 0,-3.22226 0.12443,-0.43793 0.45732,-0.78052 0.51388,-1.23945 0.0485,-0.36198 -0.10342,-0.79022 -0.0953,-1.14412 0.0194,-1.07624 0.42015,-2.23166 0.72396,-3.3176 0.29572,-1.08755 0.54458,-2.19288 0.92434,-3.10914 0.18099,-0.40884 0.54458,-0.83869 0.73365,-1.34449 0.43793,-1.16189 0.55428,-2.53385 1.04069,-3.42102 0.38945,-0.72396 1.12472,-1.3251 1.23945,-1.97473 0.10504,-0.58983 -0.10342,-1.22006 -0.10342,-1.86807 0,-0.90656 0.3135,-1.80019 0.42016,-2.68737 0.0662,-0.61084 -0.097,-1.18289 0,-1.76464 0.25694,-1.74526 1.44791,-2.96532 2.27852,-4.35668 0.30381,-2.37387 1.1425,-4.16599 0.829,-6.53016 -0.0566,-0.46702 -0.28603,-1.03099 -0.41046,-1.56427 -0.13251,-0.52357 -0.27633,-1.13441 -0.41854,-1.64991 -0.30542,-1.07786 -0.82091,-2.21066 -0.83061,-3.22226 0,-0.22947 0.17937,-0.57205 0.21008,-0.8193 0.15352,-1.28793 0.13412,-2.08946 0.3038,-3.11883 0.11312,-0.6771 0.18099,-1.3445 0.31512,-1.96342 0.10342,-0.5058 0.41853,-0.97281 0.51388,-1.45922 0.0662,-0.3232 -0.0469,-0.71427 0,-1.02938 0.10342,-0.63993 0.44762,-1.29763 0.62861,-1.97472 0.40077,-1.52387 0.85809,-2.88776 1.13442,-4.25164 0.14382,-0.71426 0.0582,-1.52387 0.52519,-2.17511 1.60951,0.19231 3.49859,0.30542 5.08225,0 0.52358,-1.477 1.70647,-2.30761 1.44791,-4.56513 0.59953,-1.1732 1.07625,-2.19127 0.83062,-3.42264 -0.097,-0.45732 -0.64963,-0.99059 -0.93404,-1.65799 -0.42015,-0.97282 -0.67871,-2.19127 -1.04069,-2.89907 -0.40076,-0.79021 -1.14411,-1.38166 -1.24753,-2.07653 -0.0388,-0.3345 0.0662,-0.94534 0.10342,-1.24107 0.21977,-1.45761 0.97282,-3.07843 1.14411,-4.55705 0.10343,-0.89687 -0.0873,-1.77273 0,-2.60173 0.13413,-1.22975 0.6771,-2.18318 1.14411,-3.10752 0.21978,-2.34478 1.38167,-3.72806 1.44792,-6.22636 -1.06654,-0.5155 -0.94373,-2.23166 -0.93403,-3.8331 1.17319,-0.82899 2.8118,-0.5058 3.84117,-1.44791 0.5058,-0.46702 0.94535,-1.43014 1.3445,-2.27853 0.93403,-1.96341 1.15542,-4.54736 1.97472,-6.53986 0.54297,-1.3154 1.21037,-1.71778 2.17349,-2.58395 0.57205,-0.52519 1.17481,-0.99221 1.44791,-1.66769 0.43793,-1.04068 0.2117,-2.46921 0.5155,-3.62302 0.0856,-0.29734 0.33289,-0.54296 0.41854,-0.83061 0.3539,-1.10533 0.47833,-2.20096 1.03099,-3.10752 0.41046,-0.6577 1.04877,-1.09725 1.56427,-1.76465 0.44762,-1.80989 1.99088,-2.75524 2.07815,-4.67179 0.0194,-0.56397 -0.3232,-1.13441 -0.21978,-1.75333 0.17938,-0.95505 1.54326,-1.50771 1.97311,-2.48861 0.75466,-1.72586 0.32481,-3.78623 0.11473,-5.09033 0.79991,0.0954 1.87777,0.41854 2.58395,0 0.47672,-1.26854 0.37168,-3.28043 -0.10342,-4.45201 -0.37168,-0.23109 -0.59145,0.26502 -0.83061,0.41853 -0.75305,0.46702 -1.56427,0.68679 -2.27853,1.13442 -0.79991,0.5058 -1.57235,1.22168 -2.69868,1.24915 0.58175,1.37358 0.31511,3.66988 -0.20846,4.87056 -1.56427,0.13412 -1.9925,2.06037 -3.30791,2.38518 -0.77405,0.19068 -1.62244,-0.34259 -2.38518,0.3038 1.46892,4.52959 -2.35448,6.38796 -3.84279,8.92343 0.43793,0.83869 0.6981,1.86807 1.24107,2.59202 -0.87748,0.6674 -2.36418,0.74335 -3.10914,1.55457 -0.42985,1.42045 -0.1616,3.22226 0.31511,4.34698 -0.7078,0.62862 -1.64991,0.54297 -2.4886,0.8387 -0.62054,0.21007 -1.29602,0.72395 -1.97473,1.13441 -0.66578,0.41046 -1.45761,0.75305 -2.07653,1.14411 -0.61084,0.40077 -1.09725,1.07786 -1.75495,1.44792 -0.31511,0.17129 -0.73365,0.21977 -1.03907,0.42015 -0.91464,0.57206 -1.8406,1.80182 -2.59365,2.89907 -0.64639,0.95342 -1.8212,2.51607 -1.86806,3.6311 -0.01,0.23754 0.14382,0.17129 0.21007,0.41045 0.21978,0.79991 -0.0776,1.3445 0.30381,1.86807 -1.11341,0.65771 -2.23005,1.031 -3.20287,1.55457 -1.09563,0.58014 -1.59982,0.90657 -2.48699,1.76465 -1.24107,1.17966 -2.13632,2.85058 -3.3176,3.83148 -0.88717,0.74335 -1.58366,0.87748 -1.97472,1.86807 -0.22947,0.58014 -0.50581,1.27824 -0.83062,1.76465 -0.34258,0.51388 -1.76303,1.75333 -2.4886,1.76303 -1.25723,0.021 -2.1541,-1.60143 -2.27691,-2.69707 -1.21037,-0.31511 -2.1444,-0.90656 -2.59203,-1.96502 0.83869,-0.92434 1.53356,-1.64022 2.48699,-2.59203 0.58175,-0.58983 2.05067,-2.06845 2.06845,-3.01218 0.0194,-0.69649 -0.69649,-1.44792 -0.829,-2.17349 -0.4961,-2.67929 1.24754,-5.1679 2.18319,-7.16201 0.6674,-1.43984 1.8212,-3.38386 3.42264,-3.3176 -0.57206,-0.57206 -0.21008,-1.47701 -0.31512,-2.27853 -0.12281,-0.89687 -0.65608,-1.72425 -0.72234,-2.48699 0.22785,-0.63023 1.02938,-0.96312 1.65638,-1.85837 0.59144,-0.85809 0.83061,-2.1848 1.65961,-2.38519 0.51388,-0.13251 1.59981,0.0873 1.9731,0.61084 0.63023,-0.29572 0.71427,-0.84838 1.44792,-1.13441 1.50771,-0.60115 3.44365,0.10504 4.76713,0.52357 1.08755,-1.477 0.94373,-4.08842 1.14411,-6.4332 0.0856,-1.14573 0.46702,-2.28822 -0.10342,-3.21256 -0.7078,0.34258 -1.43014,0.44762 -2.38518,0.3038 -0.19069,-1.0116 -0.88556,-1.71617 -1.35257,-2.4886 -0.49773,-0.8193 -1.05847,-1.56265 -1.44954,-2.48699 0.14383,-0.27795 0.54459,-0.27795 0.5155,-0.72558 0.076,-4.00439 2.6502,-5.51048 2.8021,-9.4373 -0.45732,-0.64801 -1.37358,-0.84031 -2.07976,-1.24107 -0.37975,-0.076 0.33451,-0.58984 -0.19876,-0.51388 -1.90686,1.00998 -5.79813,2.8118 -8.39824,1.75495 1.26693,-2.70838 2.09593,-5.84499 3.62141,-8.29481 -0.33289,-1.93433 -1.34449,-3.75553 -1.65799,-5.38767 0.44762,0 0.90656,0 1.35419,0 0.16967,-0.77244 0.61891,-1.33318 0.52357,-1.97311 -0.19068,-1.04715 -2.10723,-1.73556 -2.1848,-2.8021 0.41046,-0.95343 1.19259,-1.55457 1.24915,-2.89907 -0.81122,-0.37006 -1.06816,-1.28631 -1.66769,-1.86807 -0.71426,-0.67709 -1.62082,-1.13441 -2.27853,-1.85837 -2.05067,-0.10342 -3.61332,-0.57206 -4.87217,-1.56427 -0.54296,-0.40884 -0.89686,-1.3057 -1.56426,-1.44791 -0.45732,-0.0953 -1.07786,0.18099 -1.64991,0.21008 -0.92434,0.0469 -1.71779,-0.0566 -2.59203,-0.3135 0,-0.68679 0,-1.37358 0,-2.06845 1.08432,-0.33936 1.60951,-1.22491 2.28499,-1.97796 z"
     id="path4587"
     inkscape:connector-curvature="0"
     style="clip-rule:evenodd;fill-rule:evenodd;stroke-width:1.61597705" /><path
     d="m 525.7812,141.49453 c -0.57205,0.40076 -1.0213,0.59953 -1.76303,0.62054 -0.0485,0.31349 -0.87748,0.68679 -1.35419,1.34287 -0.30542,0.44763 -0.54458,1.24915 -0.83061,1.55457 -1.09725,1.19098 0.29572,2.62112 1.34449,1.45923 2.11693,0.3135 2.9831,-0.61084 3.73776,-1.65961 0.10342,-0.42985 -0.1713,-1.00029 0,-1.14411 0.3442,0 0.69648,0 1.03907,0 0.87748,-0.51388 2.94593,-0.60922 2.8021,-1.85837 -0.17937,-1.44792 -3.83148,-0.63024 -4.67179,0 0.076,-0.28765 -0.21654,-0.202 -0.3038,-0.31512 z"
     id="path4589"
     inkscape:connector-curvature="0"
     style="clip-rule:evenodd;fill-rule:evenodd;stroke-width:1.61597705" /><path
     d="m 701.93402,231.18772 c -0.41046,-0.19068 -0.59953,-0.71587 -1.14412,-0.84031 -1.05846,-0.22946 -1.94402,0.37168 -2.27852,1.13442 -0.01,1.60143 -0.16322,3.34507 0.93403,3.84118 0.3539,0.21977 1.27824,0.11473 1.65799,0 0.097,-0.54297 0.26826,-1.44792 0,-1.75334 0.50581,-0.56236 1.0213,-1.12472 0.83062,-2.38195 z"
     id="path4591"
     inkscape:connector-curvature="0"
     style="clip-rule:evenodd;fill-rule:evenodd;stroke-width:1.61597705" /><path
     d="m 679.12127,247.04046 c 2.02967,0.0566 1.68708,-3.77492 -0.41046,-3.00249 -1.27016,0.45732 -1.04069,2.96532 0.41046,3.00249 z"
     id="path4593"
     inkscape:connector-curvature="0"
     style="clip-rule:evenodd;fill-rule:evenodd;stroke-width:1.61597705" /><path
     id="path17-2"
     d="m 586.15188,375.1331 c -3.37269,-6.27649 -12.85646,-4.44419 -12.85646,3.42056 0,5.41558 5.96863,10.9531 12.85646,18.36705 6.88889,-7.41395 12.85643,-12.95147 12.85643,-18.36705 0,-7.89148 -9.50841,-9.65058 -12.85643,-3.42056 z"
     inkscape:connector-curvature="0"
     style="fill:#ff0000;fill-opacity:1;stroke:#000000;stroke-width:0.74380523;stroke-miterlimit:4;stroke-dasharray:none;stroke-opacity:1" /><path
     d="m 345.50513,333.89155 c 0.0194,-0.27633 0.10019,-0.29087 0,-0.52842 -0.46217,-0.50095 -0.61892,-1.30733 -1.06331,-1.8309 0.54297,-0.69649 0.24724,-1.57396 0.37652,-2.51285 0.16645,-1.15865 0.829,-2.24459 0.76274,-2.89421 -0.0905,-1.00029 -1.10694,-1.08109 -2.05391,-1.44792 0.12444,-0.0711 0.19069,-0.21007 0.14706,-0.45732 -0.76274,-0.425 -0.77729,-2.48375 -0.22462,-3.34669 -0.57206,-0.67224 -0.76274,-1.72101 -2.12986,-1.60143 -0.23755,-0.30542 0.25694,-0.52519 -0.0759,-0.60922 -0.52843,-0.25856 -1.03907,-0.53489 -1.53033,-0.83546 0.425,-0.005 0.042,-0.32805 0,-0.53328 -0.0242,-0.19068 -0.13736,-0.90979 -0.14705,-0.8403 0.0242,-0.18584 0.42984,-0.29573 0.23431,-0.53328 0.12443,-0.20038 0.41854,-0.23431 0.60599,-0.38137 0.1519,-0.28118 0.0759,-0.44277 0.1519,-0.68194 0.84355,-0.90656 1.85838,-1.64506 2.7407,-2.51769 0.0856,-0.6577 -0.13412,-1.59659 0,-1.82606 -0.31027,-0.20523 -0.7385,-0.54781 -0.99059,-0.38137 -0.37652,-0.26178 -0.22462,-0.71426 -0.30057,-1.06331 -0.0582,-0.25371 -0.21008,-0.45247 -0.23432,-0.68679 -0.10019,-1.13442 0.14221,-1.46892 0.53489,-2.05875 0.41369,-0.606 0.57205,-0.70619 1.14411,-0.98737 0.53812,-0.26663 0.94858,-0.50095 1.29117,-0.99059 0,-43.30172 0,-86.60345 0,-129.90517 -0.18584,-0.42823 -0.606,-0.68032 -0.91465,-1.06816 -0.18583,-0.23755 -0.31834,-0.57205 -0.52842,-0.83869 -0.2424,-0.31027 -0.48641,-0.44278 -0.60923,-0.75789 -0.19553,-0.52358 -0.10988,-1.13927 -0.30541,-1.67739 -0.21008,-0.57205 -0.77729,-0.96312 -1.06332,-1.52548 -0.27148,-0.52519 -0.4153,-1.21198 -0.61407,-1.82121 -0.40076,-1.29601 -0.62053,-2.55001 -0.37652,-4.19023 -0.46217,-0.76758 -0.55267,-1.66445 -0.91464,-2.51284 -0.26664,-0.64801 -0.40885,-1.01968 -0.52843,-1.8309 -0.12443,-0.84354 -0.25209,-1.60628 -0.15837,-2.51123 -0.33773,-0.01 -0.3038,-0.40561 -0.60599,-0.45732 -0.22947,0.13412 0.10989,0.47186 -0.0759,0.53327 -0.32319,-0.70941 -1.14734,-0.93403 -1.60143,-1.52063 -0.0582,-0.48641 -0.5155,-0.72881 -0.76274,-1.06816 -0.26179,-0.35714 -0.44763,-0.7579 -0.68194,-1.14412 -0.47187,-0.75304 -1.12472,-1.36873 -1.60144,-2.12985 -0.94858,-1.53518 -1.49639,-3.30791 -1.9828,-5.40545 0.17129,-0.53489 0.0856,-1.20228 0.1519,-1.75333 0.0856,-0.63993 0.28603,-1.22007 0.31027,-1.90201 0.59629,-0.4961 0.59629,-1.41559 0.76274,-2.43528 0.19553,-1.27823 0.66255,-3.11722 -0.0711,-3.96076 -0.0194,-0.36197 0.0711,-0.83384 -0.1616,-0.99221 -42.99146,-0.12443 -86.5275,-0.12443 -129.51895,0 -0.10989,0.94374 0.29088,1.13442 0.83869,1.52549 0.5963,0.42985 0.95343,0.57205 1.59174,0.84031 0.58175,0.24239 1.14411,0.4961 1.60143,0.60922 0.1616,0.23755 0.28118,0.53004 0.30381,0.90979 0.8193,0.85809 1.92139,0.99221 2.81664,1.60144 0.3539,0.24239 0.77244,0.46217 1.06817,0.68194 0.40884,0.31835 0.65285,0.83384 0.99059,1.22006 0.36844,0.4347 0.75304,0.78214 0.98736,1.29602 0.31512,0.27633 0.57206,0.15836 0.68194,0.53004 0.19554,0.66739 -0.56236,1.3154 -0.60599,1.90685 -0.0485,0.69649 0.51388,1.81636 0.7579,2.20581 0.45247,0.71588 1.38166,1.8406 2.0539,2.20742 0.52843,0.29088 1.23461,0.2424 1.90686,0.53328 0.32481,0.13735 0.66739,0.42985 0.98736,0.61083 0.35228,0.19554 0.71426,0.33774 0.99059,0.60923 0.76274,-0.005 1.38651,0.33774 1.8309,0.53327 0.69649,0.30057 1.3445,0.48156 1.679,1.06331 -0.36359,1.47377 1.26693,0.96313 1.82121,1.52549 0.22785,1.04392 -0.30057,1.96826 -0.22462,2.88936 0.10019,1.25885 0.88555,2.13471 1.29116,3.27882 -0.0291,0.32481 -0.34743,0.49126 -0.45247,0.83384 -0.0711,0.20039 0.0242,0.43793 -0.076,0.68679 -0.17614,0.40561 -0.62377,0.65771 -0.69164,1.06817 -0.12443,0.80152 0.69164,1.58689 0.61569,2.43043 -0.0533,0.4961 -0.64801,1.12472 -0.84031,1.90685 -0.0566,0.22462 -0.0194,0.54781 -0.076,0.76274 -0.10989,0.38137 -0.44278,0.70618 -0.53812,1.06816 -0.16645,0.70941 0.20361,1.28147 -0.14705,2.05391 -0.38137,0.20523 -0.84839,0.23755 -1.22007,0.37652 -0.68679,0.27633 -1.19097,0.80637 -1.82605,1.14896 -0.6577,0.34259 -1.31056,0.56721 -1.90685,0.98575 -0.29573,0.57205 -0.99221,0.90656 -1.06816,1.679 -0.0339,0.39106 0.21977,0.7288 0.23754,1.13926 0.005,0.27148 -0.23754,0.425 -0.076,0.68679 -0.33774,0.27633 -0.67224,0.54782 -0.91464,0.91464 0.0242,0.66255 -0.16645,1.1021 -0.38622,1.52064 -0.0194,0.96312 0.12443,1.82444 0.1519,3.04611 -0.75789,1.00029 -1.9828,0.69164 -2.88936,1.21522 -0.41046,0.2424 -0.5058,0.6674 -0.8387,0.99221 -0.17614,0.16644 -0.38621,0.23432 -0.53812,0.38137 -0.54296,0.55751 -0.8193,1.22006 -1.59173,1.44953 -0.30866,0.0857 -0.93404,0.11474 -1.30087,0.076 -0.62861,-0.0662 -1.21521,-0.48156 -1.9731,-0.45732 -0.69649,0.0242 -0.96313,0.62538 -1.83091,0.38137 -0.24724,0.30865 -0.69648,0.46702 -0.98574,0.91464 -0.17614,0.25694 -0.16322,0.5963 -0.38622,0.83385 -0.17614,0.19553 -0.60599,0.29572 -0.83384,0.45732 -0.69649,0.49126 -0.95343,1.35419 -1.90201,0.99059 -1.26854,0.42016 -2.51284,0.70134 -3.81371,0.606 -1.4059,-0.0953 -2.90714,-0.5252 -4.18538,-0.22463 -0.59629,0.13736 -1.0924,0.6771 -1.679,0.98575 -0.97281,0.5155 -1.99734,0.76759 -3.27397,0.60922 -0.26825,-0.0566 -0.26825,-0.39591 -0.60114,-0.38137 -0.69164,0.0533 -0.75789,0.0711 -1.37843,0.22947 -1.49639,0.38622 -2.53547,0.32481 -2.28337,2.28338 -0.53812,0.80152 -0.82415,1.45761 -0.91465,2.51769 -0.0339,0.43793 0.11959,0.93403 0,1.44468 -0.11958,0.51065 -0.87262,1.11988 -1.13926,1.82606 -0.0856,0.23431 -0.076,0.51388 -0.1519,0.68679 -0.20038,0.44278 -0.69649,0.8096 -0.68679,1.22006 0.005,0.2424 0.31996,0.53812 0.53489,0.84031 0.21977,0.29572 0.48641,0.53327 0.60599,0.83384 0.1519,0.38622 0.0905,0.85324 0.23431,1.06816 0.23755,0.38137 0.80638,0.50096 1.14412,0.76274 0.24239,0.64316 0.35713,0.9809 0.83869,1.13927 0.5769,0.20038 1.36873,-0.24725 1.97311,0 0.56236,0.22947 0.92918,1.59174 1.44953,2.36417 0.23431,0.35713 0.66255,0.72881 0.76274,0.98575 0.22947,0.63993 -0.0242,1.22976 0,1.82605 0.01,0.30542 0.20523,0.63993 0.22947,0.99221 0.0905,1.24754 -0.23432,3.03642 -0.61407,3.88481 0.41853,0.72558 0.20361,1.1732 0,1.90201 -0.10019,0.36682 -0.10019,0.74819 -0.22462,0.91464 -0.38622,0.51873 -1.35904,0.62377 -1.83091,0.99059 -0.26663,0.20523 -0.52034,0.72396 -0.83869,1.06332 -0.63993,0.68194 -1.16835,1.0827 -1.36873,1.9828 -0.57206,0.3636 -1.12472,0.85808 -1.52064,1.36873 -0.52034,0.66255 -0.34258,0.86778 -0.23431,1.60144 0.0679,0.40076 0.0856,0.82899 0,1.21521 -0.0436,0.22462 -0.26341,0.84354 -0.37653,1.06816 -0.10019,0.19069 -0.42015,0.34259 -0.53812,0.60599 -0.10988,0.2521 -0.21977,0.85324 -0.22462,1.14412 0,0.23431 0.12443,0.44277 0.14706,0.68679 0.18584,1.5578 -0.30865,2.21227 -1.21522,2.74069 -0.25209,-0.18099 -0.46217,-0.39591 -0.99221,-0.30542 -0.1422,0.18099 -0.0372,0.60923 -0.076,0.91465 -0.39106,0.13412 -0.69648,0.45732 -1.06331,0.52842 -0.79183,0.17129 -1.63537,-0.12928 -2.35933,-0.0711 -0.75304,0.0566 -1.59173,0.45247 -2.43043,0.76274 -0.82415,0.29088 -1.68708,0.48641 -2.29307,0.83546 -0.57205,0.33451 -1.11502,1.03422 -1.74525,1.52063 -0.77244,0.5963 -1.63537,1.08109 -1.53033,2.13471 0.40399,0.62538 1.17804,0.72557 1.68223,1.22006 0.25855,0.25209 0.5769,1.01968 0.60114,1.52064 0.0614,1.10533 -0.87263,2.23974 -0.75304,3.35153 0.0582,0.61407 0.69648,1.18613 0.67709,1.67254 -0.0242,1.12472 -1.85353,0.91949 -2.6599,1.37358 -1.22976,0.69164 -1.97795,2.04098 -2.20742,3.65211 -0.56236,0.51388 -0.46702,1.67253 -0.91465,2.28822 0.063,0.19069 0.10504,0.40884 0.076,0.68679 -0.75305,1.25238 -0.28603,2.77948 -0.38622,4.10782 -0.0339,0.55751 -0.27634,1.09078 -0.30057,1.60143 -0.0582,1.1635 -0.0339,2.39326 0.1519,3.34669 0.15675,0.79667 0.47671,1.29601 0.53489,1.90685 0.0291,0.33774 -0.17615,0.63993 -0.14867,0.99221 0.0388,0.80637 0.5866,1.11987 0.90979,1.7501 0.40561,0.78698 0.38137,1.54003 0.98251,1.97796 0.0372,0.27148 0.11959,0.50095 0.23755,0.68679 0.43309,0.70133 1.40106,1.08109 1.21522,2.05876 -0.10989,0.53812 -0.95828,0.90009 -1.13927,1.44468 -0.42985,1.23945 0.29088,1.9828 0.75305,3.04612 1.3251,0.6577 2.5694,1.3962 3.13176,2.81664 -0.33774,0.36198 -0.1422,0.96797 -0.23755,1.44792 -0.0485,0.27148 -0.21492,0.43793 -0.22462,0.68194 -0.0679,1.98765 2.40781,2.46921 3.19802,3.80886 1.48185,0.21492 1.9117,2.08784 2.96855,2.97017 0.71426,0.59629 2.14117,0.74819 2.59365,1.44791 0.36682,0.58175 0.20038,1.36873 0.45247,1.90201 0.13413,0.29087 0.48641,0.76274 0.84031,0.90979 0.96312,0.42339 2.10723,-0.29572 2.6599,0.91464 0.0566,0.92919 0.95827,1.44469 1.22491,2.21228 0.12281,0.37652 0.042,0.72395 0.22947,1.06816 0.13251,0.23755 0.43308,0.45247 0.67547,0.68194 0.26341,0.23432 0.47187,0.57206 0.69164,0.75789 0.40076,0.34744 1.06331,0.4347 1.36873,0.99221 0.99706,0.14221 1.58205,0.70134 2.5177,0.91465 0.39106,1.13926 1.71132,1.50609 2.43043,2.20742 0.40399,0.39592 0.95827,0.47187 1.45276,0.76274 0.66255,0.39592 1.10694,1.09725 1.74525,1.60144 0.47187,0.36844 1.06817,0.5672 1.45277,0.98736 0.13412,0.14705 0.18099,0.38137 0.30057,0.53489 0.13413,0.17129 0.30057,0.28118 0.46217,0.45732 0.25371,0.29087 0.45247,0.72395 0.75304,0.99059 0.31997,0.28118 0.7579,0.38137 0.99221,0.68194 0.25695,0.31997 0.27634,0.57206 0.38622,0.9906 0.14221,0.56721 0.32966,1.15865 0.37653,1.59658 0.0339,0.31997 -0.0469,0.61084 0,0.91465 0.0582,0.35228 0.26663,0.62538 0.30542,0.91464 0.0711,0.5866 -0.076,1.28147 0.14705,1.902 0.16321,0.40561 0.69164,0.84839 0.91464,1.37358 0.44278,1.01484 -0.10019,1.30248 -0.60599,2.05391 -0.31027,0.45732 -0.55266,0.86293 -0.68679,1.37358 0.34259,0.69649 0.93888,1.13927 0.91464,2.20743 0.25694,0.48641 0.79668,0.74011 0.91465,1.29116 0.10988,0.52035 -0.11959,1.11987 0,1.679 0.042,0.21493 0.32481,0.63831 0.45247,1.06816 0.0808,0.25694 0.0808,0.49126 0.1519,0.68195 0.15675,0.425 0.80637,0.6577 1.06332,0.99059 0.16644,0.20523 0.21007,0.55751 0.38621,0.75789 0.23432,0.28118 0.81607,0.62862 1.21522,0.8387 1.05846,0.55751 1.93109,0.76758 2.82311,0.15351 0.62862,-0.43793 0.89525,-1.34449 1.81959,-1.59658 0.39592,-0.60599 0.8193,-1.16351 1.14896,-1.82606 0.01,-0.99221 0.58175,-1.55941 1.44468,-1.60143 0.37653,-0.0194 0.58499,0.17129 0.9906,0.22947 0.32481,0.0469 0.7288,-0.0566 1.06331,0 0.14221,0.0242 0.37652,0.17614 0.53812,0.22947 0.75305,0.24724 1.12472,0.48641 1.74526,0.83869 0.40399,0.22462 0.74011,0.54782 1.14411,0.76274 0.76759,0.40076 1.72586,0.14221 2.59203,0.30057 1.41559,0.26825 2.48375,1.35419 3.27073,2.05391 0.82415,0.11473 1.16835,0.70941 1.98281,0.84031 0.42338,0.73365 1.47377,0.62376 1.75333,1.36711 0.16645,0.48157 -0.13736,1.79697 -0.38622,2.21228 -0.42823,0.69648 -1.66284,1.06816 -2.1347,1.60143 -0.29088,0.32481 -0.25694,0.41046 -0.37652,0.68194 -0.36198,0.81445 -1.40106,1.12957 -1.679,1.8309 0,0.45733 0,0.91465 0,1.36874 0.89686,0.95827 1.66445,2.04582 1.45437,4.11266 -0.28118,0.87263 -0.69163,1.60628 -1.22491,2.20742 -0.41369,0.0711 -0.56236,0.40077 -0.90979,0.53489 -0.70942,1.16835 -1.66769,2.09269 -1.90201,3.73291 -0.31996,0.23755 -0.20038,0.91464 -0.53812,1.13926 0.24402,0.41531 -0.20038,1.06332 -0.076,1.83091 -0.38622,0.52519 -0.37652,1.07785 -0.76274,1.59658 -0.27633,0.38137 -0.69648,0.61892 -1.06331,0.99059 -0.37168,0.38137 -0.74012,0.76759 -0.99221,1.14412 -0.0614,0.0905 -0.18584,0.1519 -0.22947,0.22462 -0.30057,0.4961 -0.21008,0.84354 -0.37652,1.44953 -0.1519,0.53327 -0.57691,1.03907 -0.68679,1.59658 -0.19554,1.00029 0,2.42074 0.14705,3.19802 0.10019,0.49611 0.15352,0.69164 0.22947,0.99221 0.0679,0.25209 0.0145,0.54297 0.0808,0.76274 0.38622,1.30733 1.27824,2.32539 2.05875,3.12207 0.76274,0.23432 1.52549,0.42985 1.96826,0.99221 0.37168,0.45247 0.51388,1.20552 0.84354,1.7501 0.36683,0.5963 0.88717,0.9195 1.13927,1.52064 0.85808,0.47186 2.0539,1.49155 3.35638,1.90685 0.57206,0.18099 1.1021,0.11958 1.44469,0.45732 0.3442,0.32966 0.29572,1.01484 0.61568,1.44469 0.10019,0.13736 0.40076,0.30542 0.60115,0.45247 0.20038,0.1519 0.45247,0.39107 0.61407,0.45732 0.39591,0.18099 0.88232,0.11474 1.36873,0.38137 0.4961,0.27633 0.91949,0.88233 1.29117,1.29602 0.43469,0.47186 0.90656,1.06331 1.37842,1.22006 0.74335,0.2424 2.26399,-0.36683 2.3561,0.30057 0.0856,0.61084 -1.56912,1.01483 -1.29278,1.679 0.18583,0.27149 0.43793,0.48156 0.37652,0.99221 0.41369,0.24725 0.58175,0.9001 0.99059,1.29117 0.26179,0.25209 1.10695,0.79183 1.36874,0.83869 0.78213,0.13736 1.39135,-0.28118 1.75333,-0.76274 0.0436,-0.0469 0.21008,-0.0953 0.22947,-0.1519 0.0388,-0.13413 -0.12928,-0.18584 -0.076,-0.30542 0.0679,-0.16645 0.31996,-0.23755 0.31027,-0.45248 0.45247,0.24725 0.70618,-0.15836 1.06331,-0.23431 0.37167,0.45247 1.03422,0.59144 1.44468,0.99059 0.33774,0.32966 0.53812,0.94858 0.8387,1.21521 1.91654,-0.20522 2.58879,1.5061 3.42748,2.21228 0.65286,0.54781 2.29792,1.01483 2.44013,2.12985 0.0469,0.41531 -0.5155,0.97282 -0.46217,1.37359 0.0679,0.51872 0.69648,0.73365 1.21521,0.83869 0.42016,0.0808 0.29573,-0.37168 0.76759,-0.22947 0.19069,0.40076 0.57691,0.5058 0.83869,0.83384 0.23432,0.30542 0.25856,0.72558 0.60115,0.99221 0.12928,0.0953 0.38622,0.18099 0.53812,0.22947 1.10048,0.37168 2.78433,0.35713 3.19802,1.29117 -0.13413,0.79183 -0.10989,1.61113 -0.1519,2.59202 0.58013,0.45733 0.71911,1.35419 1.66768,1.44469 0.0339,0.59629 0.3135,1.22006 -0.0711,1.7501 -0.2424,-0.21008 -1.00999,-0.44762 -1.36712,-0.37652 -0.0194,0 -0.0194,0.13412 -0.076,0.1519 -0.47186,0.12443 -0.35228,0.74335 -0.37652,1.37358 0.29088,0.18099 0.40076,0.55267 0.37652,1.06331 0.66255,0.70619 1.43499,1.54973 1.21522,2.89422 0.34259,0.62053 0.72072,1.20713 1.21521,1.679 0.21978,0.0808 0.52843,-0.12928 0.53812,0 0.33451,0.33451 0.12443,0.50095 0.22462,0.75789 0.10504,0.24886 0.34744,0.48641 0.46217,0.84031 0.063,0.19553 0.0679,0.59145 0.15352,0.91464 0.0856,0.31512 0.26664,0.61569 0.30057,0.83546 0.11959,0.87263 -0.19068,2.46922 -0.91464,2.7407 -0.26664,0.10504 -0.70941,0.0291 -0.98575,0.0808 -0.71426,0.12928 -1.06816,0.40561 -1.52063,0.90979 -0.23432,0.25695 -0.42015,0.45248 -0.53812,0.6868 -0.16806,0.33773 -0.51873,1.4059 -0.37652,2.0539 0.042,0.21493 0.29572,0.55751 0.45247,0.76274 0.1519,0.19554 0.38622,0.40561 0.61407,0.60599 0.47671,0.0517 1.1635,-0.10019 1.51579,0.076 0.27148,0.4961 -0.37652,0.97605 -0.37652,1.60143 0,0.61892 0.51872,1.1635 0.52842,1.82605 0.62053,0.77567 1.00675,2.03452 1.60143,2.81665 0.40561,0.53489 0.7385,0.68194 1.14411,1.06816 0.35229,0.33451 0.92919,1.08271 0.99221,1.52548 0.10504,0.7482 -0.38621,1.24915 -0.53004,2.05068 0.5963,0.96797 1.58205,1.22006 2.58395,1.75333 0.33451,0.17615 0.75305,0.39592 0.99221,0.61084 0.44278,0.404 0.78698,1.10533 1.36873,1.14412 0.56236,0.0291 1.38166,-1.03423 1.29602,-1.75334 -0.17614,-1.38166 -2.71808,-1.09078 -2.36418,-2.66475 0.56236,-0.10503 0.68679,0.23432 1.13927,0.22947 0.28118,0.22462 0.21815,-0.40399 0.69164,-0.22947 0.61891,0.1713 0.7385,0.5963 0.99059,1.14412 0.0905,0.20038 0.17129,0.47671 0.30057,0.60599 0.25856,0.27148 0.77244,0.29572 1.13926,0.61084 0.23755,0.20038 0.47187,0.55751 0.53813,0.83869 0.21977,0.96312 -0.10989,1.57881 0.45247,1.9828 0.0856,0.0582 0.21008,0.0372 0.31027,0.076 0.62861,0.2424 1.77757,-0.40561 2.43527,-0.8403 -0.648,-0.55267 -1.53033,-0.98575 -1.90685,-1.82444 -0.14221,-0.33451 -0.0566,-0.44278 -0.1519,-0.76759 -0.005,-0.0372 -0.13413,-0.0759 -0.14705,-0.14706 -0.2521,-0.92433 0.38621,-1.3251 0.60114,-2.05875 0.19553,-0.11473 0.5058,-0.10504 0.61407,-0.30542 0.15837,-0.26664 0.21977,-0.64316 0.46217,-0.83384 0.14382,0.0291 0,0.34743 0.30057,0.22462 0.17614,-0.14221 -0.1422,-0.41854 0.0759,-0.60599 0.10019,0.29572 0.30057,0.83384 0.68518,0.60599 0.74011,-0.38622 -0.0663,-1.09079 0,-1.29117 0.70133,-0.91949 1.2346,-2.01189 1.7501,-3.12207 0.74012,-0.46701 1.22491,-1.01483 1.75495,-1.52063 0.54297,-0.52035 1.1732,-1.11179 1.90201,-1.37358 0.7385,-0.26179 1.47861,-0.19069 2.35932,-0.076 0.76274,0.0953 1.57881,0.17129 2.28338,0.45732 0.46702,0.18584 0.91464,0.4961 1.37358,0.68679 0.87747,0.35713 1.58689,0.68194 2.28337,0.98736 0.77244,0.34259 1.00029,0.42823 1.59659,0.83869 0.2424,0.16645 0.54297,0.29088 0.76274,0.45248 0.5866,0.44762 0.97282,1.15865 1.45438,1.29601 0.40884,0.12928 0.8096,-0.11958 1.21521,-0.0711 0.74335,0.0808 1.38167,0.6674 2.13148,0.91464 0.26179,0.0808 0.53812,0.005 0.76274,0.0711 0.16806,0.0517 0.36198,0.22947 0.53004,0.30542 0.23432,0.10504 0.41854,0.22947 0.68679,0.22947 0.41854,0.49611 0.95827,0.80961 1.44468,1.21522 0.48641,0.41045 0.94858,0.94858 1.45438,1.22491 0.76274,0.41369 2.508,0.56236 3.42264,0.0711 0.90657,-0.49126 2.19773,-2.74554 2.43528,-3.88481 0.20038,-0.96312 -0.13736,-1.34934 -0.3038,-1.97795 -0.14383,-0.5155 -0.30057,-0.68679 -0.45248,-1.06817 -0.11473,-0.26663 -0.12443,-0.5672 -0.23431,-0.75789 -0.26179,-0.45247 -0.7579,-0.71911 -1.13927,-1.13926 -0.33774,-0.37653 -0.43793,-0.89687 -0.69164,-1.22491 -0.32965,-0.43793 -0.88717,-0.52035 -1.06331,-1.06332 -0.30542,-0.95827 0.31027,-1.82605 0.68679,-2.66474 0.56236,-1.23946 1.01484,-2.33509 1.06816,-3.96076 0.45732,-0.67225 1.27339,-1.26854 2.12986,-1.59659 0.73042,-0.28118 0.84354,-0.28118 1.29278,0.0711 0.37652,0.30057 0.9809,0.85808 1.44792,0.83869 0.33774,-0.01 0.76759,-0.53004 0.99221,-0.68194 0.27633,-0.19554 0.31996,-0.36198 0.52842,-0.61408 0.68194,-0.79183 1.66931,-1.10694 2.6696,-1.36873 0.26663,-0.0663 0.53812,-0.20038 0.76274,-0.22947 0.70618,-0.0856 1.42529,0.0566 2.12986,0 0.54781,-0.042 1.13441,-0.24724 1.67415,-0.30057 0.50903,-0.0582 0.73365,-0.19068 1.14896,-0.31027 0.63831,-0.17614 1.33964,-0.0242 2.04421,-0.14705 1.22006,-0.21977 1.8406,-1.48185 1.60628,-2.97017 -0.25209,-0.60922 -1.06816,-0.99221 -1.44468,-1.60143 -0.37168,-0.5866 -0.96797,-0.83384 -1.30087,-1.29117 -0.29572,-0.41045 -0.29572,-0.88232 -0.45247,-1.44953 -0.23432,-0.86778 -1.00675,-2.08299 -0.84031,-3.12207 0.12443,-0.80637 1.18128,-2.06845 1.679,-2.51122 0.91465,-0.83062 2.26399,-1.1732 3.12207,-1.97958 0.01,-0.43793 0.56721,-0.86778 0.75305,-1.44791 0.0759,-0.21977 0.0194,-0.53489 0.0856,-0.83385 0.16645,-0.79667 0.52035,-1.1635 -0.16159,-1.60143 -0.84031,-0.0759 -1.09725,0.60115 -1.82121,0.22947 -0.11474,-0.31512 -0.44278,-0.82415 -0.23432,-1.22006 0.66255,0.26825 2.44013,1.01968 2.6696,0 0.23431,-1.02938 -1.25885,-1.00514 -1.75334,-1.44469 -0.18584,-0.16806 -0.16806,-0.38621 -0.30057,-0.60922 -0.34744,-0.5866 -0.94373,-1.21521 -0.99059,-1.902 0.74335,0.29572 1.26854,1.03907 2.43043,0.68194 0.32804,-0.13736 0.47186,0.31027 0.91464,0.076 0.1519,-0.22947 0.18584,-0.5769 0.1616,-0.99221 -0.28603,-0.32481 -0.74012,-0.48156 -1.30087,-0.52843 -0.35228,0 -0.34258,0.36683 -0.8403,0.22947 -0.12928,-0.19068 -0.606,-0.62053 -0.22947,-0.8403 0.4153,-0.12928 0.69648,0.68194 1.36873,0.30541 0.45247,-0.44277 0.10019,-1.26854 0.0856,-1.902 0.38622,-0.14705 0.74011,-0.0663 0.91464,-0.53327 0.44278,-0.97282 -0.5963,-1.55457 -0.53812,-2.20743 0.0533,-0.60114 0.69649,-0.45247 0.68679,-1.22006 -0.15675,-0.5058 -1.37358,0.0582 -1.52548,-0.45732 0.10019,-0.60922 0.99706,-0.61407 1.52548,-0.38137 0.73365,-0.2424 1.60628,-0.68679 2.05875,-1.14411 0.14221,-0.14706 0.36683,-0.35229 0.37653,-0.37653 0.18583,-0.51388 0.01,-1.4059 -0.45248,-1.52548 -0.36359,-0.0905 -0.76274,0.30057 -1.06816,0.45732 -0.35713,0.18099 -0.67224,0.42824 -1.06331,0.30381 -0.38622,-0.829 0.67709,-0.95828 1.36873,-0.9098 0.45248,-0.21008 0.33451,-0.98736 0.6771,-1.29763 0.43793,-0.10504 0.46217,0.20038 0.83869,0.14867 0.3038,-0.22947 0.52842,-0.53489 0.69164,-0.90979 0.63346,-0.0711 1.09078,-1.02938 0.60922,-1.52064 -0.36198,-0.26663 -0.46217,0.27149 -0.76274,0.30057 -0.0194,-0.41369 -0.20038,-0.6577 -0.38622,-0.91464 -0.41854,0.0242 -0.63831,-0.16645 -0.99059,-0.22462 -0.0759,-0.46217 -0.48641,-0.69164 -0.60599,-1.14411 -0.18099,-0.67548 0.10342,-1.41075 0,-2.12986 0.39591,0.0291 0.32804,0.53489 0.84354,0.45732 0.16644,-0.21492 0.39106,-0.36683 0.30057,-0.83869 0.25855,-0.0194 0.46701,-0.0905 0.45247,-0.38137 0.26825,-0.30057 -0.29572,-0.404 -0.22947,-0.75789 0.7579,-0.13413 0.62539,-1.64022 1.60628,-1.06817 -0.18583,0.39107 -0.648,1.09079 -0.22947,1.59659 1.01484,0.12928 0.84839,-0.92434 1.52064,-1.13926 0.21977,-0.42016 0.29087,-0.98252 0.68679,-1.22007 0.0679,0.71427 -0.25209,2.0119 0.84031,1.97796 0.5058,-0.01 0.94858,-0.74335 1.05685,-1.44468 0.12443,-0.77729 -0.0145,-1.66446 0.31026,-2.35933 0.14221,-0.3038 0.53812,-0.76274 0.76275,-0.91464 0.40399,-0.27634 0.90979,-0.26179 1.22006,-0.45733 0.45247,-0.29087 0.59629,-0.86777 0.91464,-1.29601 0.28118,-0.39591 0.66255,-0.67225 0.83061,-1.06331 -0.0582,-0.56721 0.0566,-0.96312 0.15675,-1.36873 0.23755,-0.32966 0.51873,-0.48641 0.38137,-0.91465 -0.12927,-0.38622 -0.62376,-0.30865 -0.99059,-0.45732 0.01,-1.02938 0.99059,-0.68679 1.75333,-0.83869 0.86294,-0.17129 1.59174,-0.90656 1.89716,-1.52548 0.14221,0.35228 0.63346,0.19068 0.99706,0.15675 0.68194,-0.92434 -0.56236,-1.5772 -0.84031,-2.44013 0.16322,-0.18584 0.51065,-0.20038 0.60599,-0.45732 0.0808,-0.78052 0.57206,-1.15866 0.76274,-1.82605 0.35229,0.0759 0.43793,-0.12443 0.61569,-0.22947 -0.01,-0.82415 0.19069,-1.60628 0.22462,-2.5888 0.45248,-0.48641 0.50904,-0.9809 1.06816,-1.37358 0.80638,-0.56721 2.21228,-0.45247 2.81665,-0.99059 0.23432,-0.21493 0.39592,-0.32481 0.60599,-0.53004 0.12443,-0.46702 0.0582,-0.94858 0.22462,-1.36874 0.01,-0.0242 0.14383,0.01 0.15352,0 0.042,-0.0339 -0.0242,-0.19068 0,-0.23431 0.35228,-0.48156 0.51388,-0.82415 0.53812,-1.44469 0.0146,-0.39106 0.10989,-0.99705 -0.1519,-1.36873 0.8904,-0.98413 -0.63831,-1.75172 -0.91626,-2.52416 z"
     id="path8"
     inkscape:connector-curvature="0"
     style="clip-rule:evenodd;fill-rule:evenodd;stroke-width:1.61597705" /><path
     id="path17-2-4"
     d="m 298.87508,256.29438 c -3.37269,-6.27649 -12.85646,-4.44419 -12.85646,3.42056 0,5.41558 5.96863,10.9531 12.85646,18.36705 6.88889,-7.41395 12.85643,-12.95147 12.85643,-18.36705 0,-7.89148 -9.50841,-9.65058 -12.85643,-3.42056 z"
     inkscape:connector-curvature="0"
     style="fill:#ff0000;fill-opacity:1;stroke:#000000;stroke-width:0.74380523;stroke-miterlimit:4;stroke-dasharray:none;stroke-opacity:1" /><path
     id="path17-2-5"
     d="m 964.17869,294.15452 c -3.37269,-6.2765 -12.85648,-4.4442 -12.85648,3.42057 0,5.41559 5.96864,10.95312 12.85648,18.36708 6.8889,-7.41396 12.85641,-12.95149 12.85641,-18.36708 0,-7.89149 -9.5084,-9.6506 -12.85641,-3.42057 z"
     inkscape:connector-curvature="0"
     style="fill:#ff0000;fill-opacity:1;stroke:#000000;stroke-width:0.74380654;stroke-miterlimit:4;stroke-dasharray:none;stroke-opacity:1" /><path
     id="path17-2-5-3"
     d="m 1196.1937,192.54688 c -3.3727,-6.27649 -12.8566,-4.44419 -12.8566,3.42057 0,5.41559 5.9687,10.95311 12.8566,18.36707 6.8888,-7.41396 12.8563,-12.95148 12.8563,-18.36707 0,-7.89149 -9.5083,-9.6506 -12.8563,-3.42057 z"
     inkscape:connector-curvature="0"
     style="fill:#ff0000;fill-opacity:1;stroke:#000000;stroke-width:0.74380606;stroke-miterlimit:4;stroke-dasharray:none;stroke-opacity:1" /></g></svg>