<?xml version="1.0" standalone="no"?>
<!DOCTYPE svg PUBLIC "-//W3C//DTD SVG 20010904//EN"
 "http://www.w3.org/TR/2001/REC-SVG-20010904/DTD/svg10.dtd">
<svg version="1.0" xmlns="http://www.w3.org/2000/svg"
 width="361.000000pt" height="361.000000pt" viewBox="0 0 361.000000 361.000000"
 preserveAspectRatio="xMidYMid meet">
<metadata>
Created by potrace 1.14, written by Peter Selinger 2001-2017
</metadata>
<g transform="translate(0.000000,361.000000) scale(0.100000,-0.100000)"
fill="#000000" stroke="none">
<path d="M1605 3598 c-197 -22 -406 -83 -591 -173 -674 -327 -1079 -1052
-1003 -1796 36 -354 175 -690 399 -964 83 -102 242 -250 350 -328 117 -83 340
-195 480 -241 860 -283 1799 118 2190 936 240 502 232 1090 -21 1588 -145 283
-353 517 -619 694 -336 224 -780 330 -1185 284z m513 -277 c373 -82 697 -290
922 -588 460 -614 399 -1476 -144 -2019 -477 -477 -1210 -589 -1809 -276 -408
213 -697 596 -799 1059 -19 83 -22 130 -22 308 0 180 3 224 22 312 43 198 122
385 235 554 73 110 239 286 344 365 207 156 445 258 699 299 129 21 428 13
552 -14z"/>
<path d="M1690 3280 c-727 -56 -1310 -642 -1359 -1365 -22 -337 62 -656 248
-935 71 -107 245 -288 350 -364 263 -189 557 -286 870 -286 823 0 1481 660
1481 1485 0 309 -98 604 -286 866 -76 105 -257 279 -364 350 -204 136 -465
230 -675 244 -44 3 -100 7 -125 9 -25 2 -88 0 -140 -4z m178 -1250 c266 -305
488 -556 493 -558 12 -5 11 619 -1 754 -17 182 -32 215 -113 249 -20 8 -64 18
-97 22 l-60 6 0 43 0 44 315 0 315 0 0 -44 0 -43 -51 -6 c-28 -4 -65 -14 -82
-24 -87 -51 -97 -147 -97 -961 l0 -613 -62 3 -63 3 -520 622 c-286 342 -526
628 -533 635 -11 11 -13 -68 -9 -472 4 -522 8 -563 58 -616 26 -28 104 -54
161 -54 l38 0 0 -45 0 -45 -310 0 -310 0 0 45 c0 43 1 45 29 45 43 0 112 28
143 57 54 52 68 212 68 772 0 482 -3 507 -60 569 -35 39 -100 70 -164 78 l-46
7 0 44 0 43 237 -2 237 -3 484 -555z"/>
</g>
</svg>
